<?xml version="1.0" encoding="UTF-8"?>
<!DOCTYPE svg PUBLIC "-//W3C//DTD SVG 1.1//EN" "http://www.w3.org/Graphics/SVG/1.1/DTD/svg11.dtd">
<svg xmlns="http://www.w3.org/2000/svg" version="1.1" width="2431px" height="400px" style="shape-rendering:geometricPrecision; text-rendering:geometricPrecision; image-rendering:optimizeQuality; fill-rule:evenodd; clip-rule:evenodd" xmlns:xlink="http://www.w3.org/1999/xlink">
<g><path style="opacity:0.991" fill="#f0f2f2" d="M 497.5,42.5 C 515.141,40.6366 525.474,48.4699 528.5,66C 523.464,86.5223 510.797,93.5223 490.5,87C 477.887,99.6126 465.221,112.279 452.5,125C 450.61,126.112 448.61,126.946 446.5,127.5C 441.209,126.598 435.876,126.265 430.5,126.5C 430.211,122.894 430.544,119.394 431.5,116C 436.614,115.891 441.614,115.224 446.5,114C 458.527,100.64 471.194,87.9729 484.5,76C 480.273,70.3576 479.44,64.1909 482,57.5C 485.741,50.9243 490.907,45.9243 497.5,42.5 Z M 501.5,56.5 C 511.829,56.6677 515.329,61.6677 512,71.5C 502.114,77.54 496.78,74.8733 496,63.5C 496.59,60.0883 498.423,57.755 501.5,56.5 Z"/></g>
<g><path style="opacity:0.997" fill="#f9fbfb" d="M 128.5,42.5 C 141.916,40.2893 151.416,45.2893 157,57.5C 157.694,60.4682 158.194,63.4682 158.5,66.5C 157.446,70.4702 156.946,74.4702 157,78.5C 169.169,91.0022 181.669,103.169 194.5,115C 200.538,115.471 206.538,115.471 212.5,115C 216.397,125.054 213.064,129.22 202.5,127.5C 198.081,127.564 193.748,127.064 189.5,126C 174.741,113.41 160.741,99.9097 147.5,85.5C 128.192,92.8773 116.192,86.3773 111.5,66C 112.834,54.8595 118.501,47.0261 128.5,42.5 Z M 132.5,56.5 C 142.67,57.7703 145.503,63.1036 141,72.5C 135.879,76.6772 131.545,76.0106 128,70.5C 126.19,64.519 127.69,59.8523 132.5,56.5 Z"/></g>
<g><path style="opacity:0.992" fill="#f4f6f6" d="M 339.5,309.5 C 327.167,309.5 314.833,309.5 302.5,309.5C 290.968,305.803 285.302,297.803 285.5,285.5C 279.603,284.986 274.103,283.32 269,280.5C 267.902,277.417 267.068,274.251 266.5,271C 263.076,267.99 260.243,264.49 258,260.5C 257.333,256.5 257.333,252.5 258,248.5C 258.6,246.09 259.766,244.09 261.5,242.5C 263.022,241.809 264.022,240.642 264.5,239C 263.392,236.888 261.892,235.054 260,233.5C 259.333,231.5 258.667,229.5 258,227.5C 257.83,217.325 257.33,207.325 256.5,197.5C 249.984,188.615 243.484,179.615 237,170.5C 223.228,146.389 219.561,120.722 226,93.5C 236.85,59.6472 259.017,36.4805 292.5,24C 339.525,13.4452 377.025,27.6119 405,66.5C 424.638,102.393 424.305,138.06 404,173.5C 400.098,180.072 395.431,186.072 390,191.5C 386.851,197.2 385.351,203.367 385.5,210C 386.357,216.824 386.524,223.657 386,230.5C 384.486,234.155 382.319,237.322 379.5,240C 385.87,251.34 384.37,261.506 375,270.5C 373.519,281.84 367.019,286.84 355.5,285.5C 356.107,297.656 350.773,305.656 339.5,309.5 Z M 370.5,198.5 C 370.756,200.792 370.423,202.959 369.5,205C 337.168,205.5 304.835,205.667 272.5,205.5C 272.956,200.404 271.956,195.738 269.5,191.5C 268.708,187.866 267.208,184.533 265,181.5C 238.501,152.925 232.168,120.259 246,83.5C 269.88,41.8228 305.047,27.6562 351.5,41C 385.432,57.1685 402.766,84.1685 403.5,122C 402.5,147.008 393,168.174 375,185.5C 373.483,189.859 371.983,194.192 370.5,198.5 Z M 359.5,219.5 C 363.555,219.176 367.555,219.509 371.5,220.5C 372.208,222.892 371.542,225.059 369.5,227C 337.168,227.5 304.835,227.667 272.5,227.5C 271.221,224.998 271.221,222.498 272.5,220C 288.497,219.5 304.497,219.333 320.5,219.5C 333.507,218.408 346.507,218.408 359.5,219.5 Z M 277.5,240.5 C 307.502,240.333 337.502,240.5 367.5,241C 368.423,243.041 368.756,245.208 368.5,247.5C 337.624,247.463 306.624,247.629 275.5,248C 273.84,244.777 274.506,242.277 277.5,240.5 Z M 277.5,260.5 C 306.165,260.972 334.831,261.306 363.5,261.5C 363.38,264.48 362.713,267.313 361.5,270C 334.5,270.667 307.5,270.667 280.5,270C 277.545,267.324 276.545,264.157 277.5,260.5 Z M 299.5,283.5 C 313.171,283.333 326.837,283.5 340.5,284C 341.401,288.888 339.734,292.888 335.5,296C 328.582,297.551 321.582,297.884 314.5,297C 305.408,296.731 300.408,292.231 299.5,283.5 Z"/></g>
<g><path style="opacity:1" fill="#253d38" d="M 296.5,79.5 C 298.737,81.6471 300.737,83.9804 302.5,86.5C 300.833,86.5 299.167,86.5 297.5,86.5C 297.67,85.1779 297.337,84.0113 296.5,83C 293.833,82.3333 291.167,82.3333 288.5,83C 287.874,83.7504 287.374,84.5838 287,85.5C 285.644,84.6198 284.144,84.2865 282.5,84.5C 282.481,86.0603 282.148,87.5603 281.5,89C 282.445,92.4334 284.111,95.4334 286.5,98C 285.376,98.2492 284.376,98.7492 283.5,99.5C 288.823,104.779 294.156,110.113 299.5,115.5C 301.302,116.986 303.302,117.986 305.5,118.5C 305.66,120.199 305.494,121.866 305,123.5C 301.902,127.107 298.402,130.107 294.5,132.5C 297.811,128.853 301.145,125.187 304.5,121.5C 300.84,119.503 297.84,116.836 295.5,113.5C 294.761,113.631 294.094,113.464 293.5,113C 288.369,107.854 283.369,102.688 278.5,97.5C 277.611,95.264 276.278,93.264 274.5,91.5C 276.387,89.9596 278.22,88.2929 280,86.5C 280.483,85.552 280.649,84.552 280.5,83.5C 281.942,82.1805 282.608,80.5138 282.5,78.5C 287.342,76.9283 292.009,77.2616 296.5,79.5 Z"/></g>
<g><path style="opacity:1" fill="#98ce9c" d="M 351.5,51.5 C 354.477,52.3218 357.144,53.6552 359.5,55.5C 360.366,57.144 360.866,58.8107 361,60.5C 358.314,61.6759 355.981,63.3425 354,65.5C 351.806,69.8886 349.639,74.2219 347.5,78.5C 339.52,87.3133 331.02,95.6467 322,103.5C 316.641,99.7398 311.808,95.4065 307.5,90.5C 311.521,93.9851 316.021,96.9851 321,99.5C 323.77,97.8652 326.603,96.3652 329.5,95C 330.252,94.3292 330.586,93.4959 330.5,92.5C 333.969,90.0938 336.636,86.9271 338.5,83C 340.405,81.13 342.572,79.63 345,78.5C 346.308,75.2698 347.308,71.9364 348,68.5C 349.925,67.1196 351.759,65.6196 353.5,64C 350.418,60.2366 351.085,57.4033 355.5,55.5C 353.921,54.3331 352.588,52.9998 351.5,51.5 Z"/></g>
<g><path style="opacity:1" fill="#b4da7c" d="M 330.5,92.5 C 330.586,93.4959 330.252,94.3292 329.5,95C 326.603,96.3652 323.77,97.8652 321,99.5C 316.021,96.9851 311.521,93.9851 307.5,90.5C 305.846,89.2497 304.179,87.9163 302.5,86.5C 300.737,83.9804 298.737,81.6471 296.5,79.5C 299.388,80.6471 301.888,82.3138 304,84.5C 305.226,84.3552 306.393,84.0219 307.5,83.5C 308.466,85.396 308.799,87.396 308.5,89.5C 310.262,89.6427 311.929,89.3094 313.5,88.5C 314.998,90.1587 316.498,91.8253 318,93.5C 319.567,92.1439 321.4,91.4772 323.5,91.5C 323.25,88.4955 324.583,86.6622 327.5,86C 330.712,81.9616 334.046,78.1283 337.5,74.5C 338.47,68.7075 340.97,63.7075 345,59.5C 345.818,56.7728 345.652,54.1062 344.5,51.5C 332.733,49.6585 321.066,49.3252 309.5,50.5C 301.149,51.1746 293.482,53.8412 286.5,58.5C 270.589,68.6181 260.089,82.9514 255,101.5C 254.393,105.537 254.56,109.537 255.5,113.5C 256.833,113.5 258.167,113.5 259.5,113.5C 261.307,104.973 263.807,96.6392 267,88.5C 270.047,83.2123 273.547,78.2123 277.5,73.5C 278.689,72.5713 280.022,72.238 281.5,72.5C 278.208,74.8008 275.541,77.8008 273.5,81.5C 274.077,83.5499 275.41,84.5499 277.5,84.5C 275.637,86.8606 273.637,89.0273 271.5,91C 272.544,92.1739 273.544,93.3406 274.5,94.5C 271.852,94.2615 270.018,92.9282 269,90.5C 268.333,91.1667 267.667,91.8333 267,92.5C 264.801,98.3324 263.301,104.332 262.5,110.5C 260.934,112.956 259.267,115.456 257.5,118C 255.257,117.681 253.09,117.848 251,118.5C 250.506,120.134 250.34,121.801 250.5,123.5C 249.833,120.5 249.167,117.5 248.5,114.5C 248.795,112.265 248.461,110.265 247.5,108.5C 252.311,86.2314 263.978,68.7314 282.5,56C 287.495,53.0027 292.828,50.836 298.5,49.5C 313.003,45.747 327.67,45.5804 342.5,49C 344.329,49.2735 345.829,50.1068 347,51.5C 347.591,54.2751 348.758,56.7751 350.5,59C 345.067,63.1153 342.234,68.6153 342,75.5C 339.852,76.9774 338.518,78.9774 338,81.5C 336.292,83.5435 334.292,85.2101 332,86.5C 331.187,88.4357 330.687,90.4357 330.5,92.5 Z"/></g>
<g><path style="opacity:1" fill="#365c39" d="M 280.5,83.5 C 280.649,84.552 280.483,85.552 280,86.5C 278.22,88.2929 276.387,89.9596 274.5,91.5C 276.278,93.264 277.611,95.264 278.5,97.5C 277.167,96.5 275.833,95.5 274.5,94.5C 273.544,93.3406 272.544,92.1739 271.5,91C 273.637,89.0273 275.637,86.8606 277.5,84.5C 278.391,83.8902 279.391,83.5569 280.5,83.5 Z"/></g>
<g><path style="opacity:1" fill="#b4e16a" d="M 309.5,50.5 C 321.066,49.3252 332.733,49.6585 344.5,51.5C 345.652,54.1062 345.818,56.7728 345,59.5C 340.97,63.7075 338.47,68.7075 337.5,74.5C 334.046,78.1283 330.712,81.9616 327.5,86C 324.583,86.6622 323.25,88.4955 323.5,91.5C 321.4,91.4772 319.567,92.1439 318,93.5C 316.498,91.8253 314.998,90.1587 313.5,88.5C 311.929,89.3094 310.262,89.6427 308.5,89.5C 308.799,87.396 308.466,85.396 307.5,83.5C 306.393,84.0219 305.226,84.3552 304,84.5C 301.888,82.3138 299.388,80.6471 296.5,79.5C 292.009,77.2616 287.342,76.9283 282.5,78.5C 282.611,77.8826 282.944,77.3826 283.5,77C 288.146,76.8189 292.646,75.9856 297,74.5C 300.819,76.0609 304.652,77.5609 308.5,79C 310.245,81.1976 311.912,83.3643 313.5,85.5C 314.167,84.5 314.833,83.5 315.5,82.5C 316.768,83.4279 318.101,83.5946 319.5,83C 320.742,81.1246 322.076,79.2913 323.5,77.5C 326.556,77.0618 329.223,75.8951 331.5,74C 331.5,72 331.5,70 331.5,68C 332.744,65.6966 334.411,65.1966 336.5,66.5C 337.244,65.0095 337.91,63.5095 338.5,62C 333.973,63.2439 330.306,61.9105 327.5,58C 324.833,57.3333 322.167,57.3333 319.5,58C 312.484,60.5416 305.484,63.2082 298.5,66C 301.941,66.8357 302.108,67.669 299,68.5C 296.522,67.6681 294.022,67.5014 291.5,68C 288.184,69.6025 284.851,71.1025 281.5,72.5C 282.29,71.2058 283.29,70.0391 284.5,69C 288.165,67.503 291.498,65.503 294.5,63C 303.309,60.7297 311.976,58.063 320.5,55C 321.925,53.2859 321.592,51.9525 319.5,51C 316.183,50.5017 312.85,50.335 309.5,50.5 Z"/></g>
<g><path style="opacity:1" fill="#a1cd85" d="M 351.5,51.5 C 352.588,52.9998 353.921,54.3331 355.5,55.5C 351.085,57.4033 350.418,60.2366 353.5,64C 351.759,65.6196 349.925,67.1196 348,68.5C 347.308,71.9364 346.308,75.2698 345,78.5C 342.572,79.63 340.405,81.13 338.5,83C 336.636,86.9271 333.969,90.0938 330.5,92.5C 330.687,90.4357 331.187,88.4357 332,86.5C 334.292,85.2101 336.292,83.5435 338,81.5C 338.518,78.9774 339.852,76.9774 342,75.5C 342.234,68.6153 345.067,63.1153 350.5,59C 348.758,56.7751 347.591,54.2751 347,51.5C 345.829,50.1068 344.329,49.2735 342.5,49C 327.67,45.5804 313.003,45.747 298.5,49.5C 301.135,47.672 304.135,46.5053 307.5,46C 322.882,43.2072 337.548,45.0405 351.5,51.5 Z"/></g>
<g><path style="opacity:1" fill="#6dbfc2" d="M 359.5,55.5 C 365.102,58.7705 370.102,62.7705 374.5,67.5C 374.5,68.8333 374.5,70.1667 374.5,71.5C 371.654,71.8087 370.154,73.4754 370,76.5C 366.893,74.0818 366.726,72.4151 369.5,71.5C 368.855,70.2679 368.689,68.9346 369,67.5C 363.53,72.1337 363.03,77.3003 367.5,83C 366.748,83.6708 366.414,84.5041 366.5,85.5C 365.399,84.1516 364.399,82.6516 363.5,81C 358.311,79.2023 352.978,78.369 347.5,78.5C 349.639,74.2219 351.806,69.8886 354,65.5C 355.981,63.3425 358.314,61.6759 361,60.5C 360.866,58.8107 360.366,57.144 359.5,55.5 Z"/></g>
<g><path style="opacity:1" fill="#abdf58" d="M 282.5,78.5 C 282.608,80.5138 281.942,82.1805 280.5,83.5C 279.391,83.5569 278.391,83.8902 277.5,84.5C 275.41,84.5499 274.077,83.5499 273.5,81.5C 275.541,77.8008 278.208,74.8008 281.5,72.5C 284.851,71.1025 288.184,69.6025 291.5,68C 294.022,67.5014 296.522,67.6681 299,68.5C 302.108,67.669 301.941,66.8357 298.5,66C 305.484,63.2082 312.484,60.5416 319.5,58C 322.167,57.3333 324.833,57.3333 327.5,58C 330.306,61.9105 333.973,63.2439 338.5,62C 337.91,63.5095 337.244,65.0095 336.5,66.5C 334.411,65.1966 332.744,65.6966 331.5,68C 331.5,70 331.5,72 331.5,74C 329.223,75.8951 326.556,77.0618 323.5,77.5C 322.076,79.2913 320.742,81.1246 319.5,83C 318.101,83.5946 316.768,83.4279 315.5,82.5C 314.833,83.5 314.167,84.5 313.5,85.5C 311.912,83.3643 310.245,81.1976 308.5,79C 304.652,77.5609 300.819,76.0609 297,74.5C 292.646,75.9856 288.146,76.8189 283.5,77C 282.944,77.3826 282.611,77.8826 282.5,78.5 Z"/></g>
<g><path style="opacity:1" fill="#f3fcdf" d="M 309.5,50.5 C 312.85,50.335 316.183,50.5017 319.5,51C 321.592,51.9525 321.925,53.2859 320.5,55C 311.976,58.063 303.309,60.7297 294.5,63C 291.498,65.503 288.165,67.503 284.5,69C 283.29,70.0391 282.29,71.2058 281.5,72.5C 280.022,72.238 278.689,72.5713 277.5,73.5C 273.547,78.2123 270.047,83.2123 267,88.5C 263.807,96.6392 261.307,104.973 259.5,113.5C 258.167,113.5 256.833,113.5 255.5,113.5C 254.56,109.537 254.393,105.537 255,101.5C 260.089,82.9514 270.589,68.6181 286.5,58.5C 293.482,53.8412 301.149,51.1746 309.5,50.5 Z"/></g>
<g><path style="opacity:0.985" fill="#22fe64" d="M 1606.5,106.5 C 1605.83,106.5 1605.5,106.833 1605.5,107.5C 1604.5,130.327 1604.17,153.327 1604.5,176.5C 1606.97,176.912 1608.31,175.912 1608.5,173.5C 1609.96,171.372 1610.96,169.038 1611.5,166.5C 1629.44,153.605 1648.44,152.105 1668.5,162C 1671.75,164.747 1674.42,167.914 1676.5,171.5C 1676.9,174.715 1677.9,177.715 1679.5,180.5C 1679.72,184.162 1680.72,187.495 1682.5,190.5C 1682.5,190.833 1682.5,191.167 1682.5,191.5C 1682.5,220.5 1682.5,249.5 1682.5,278.5C 1671.99,278.172 1661.65,278.506 1651.5,279.5C 1650.66,279.842 1650.33,280.508 1650.5,281.5C 1648.86,281.714 1647.36,281.38 1646,280.5C 1645.67,255.5 1645.33,230.5 1645,205.5C 1644.47,202.071 1643.63,198.738 1642.5,195.5C 1642.66,194.127 1642.49,192.793 1642,191.5C 1626.53,179.838 1614.7,182.838 1606.5,200.5C 1605.73,201.263 1605.23,202.263 1605,203.5C 1604.5,228.498 1604.33,253.498 1604.5,278.5C 1593.65,278.172 1582.99,278.506 1572.5,279.5C 1572.17,280.167 1571.83,280.833 1571.5,281.5C 1569.86,281.714 1568.36,281.38 1567,280.5C 1566.5,220.501 1566.33,160.501 1566.5,100.5C 1579.83,100.5 1593.17,100.5 1606.5,100.5C 1606.5,102.5 1606.5,104.5 1606.5,106.5 Z"/></g>
<g><path style="opacity:0.707" fill="#000401" d="M 1606.5,106.5 C 1608.17,106.5 1609.83,106.5 1611.5,106.5C 1611.5,126.5 1611.5,146.5 1611.5,166.5C 1610.96,169.038 1609.96,171.372 1608.5,173.5C 1607.54,173.953 1606.71,174.619 1606,175.5C 1605.5,152.836 1605.33,130.169 1605.5,107.5C 1605.5,106.833 1605.83,106.5 1606.5,106.5 Z"/></g>
<g><path style="opacity:1" fill="#14923a" d="M 1605.5,107.5 C 1605.33,130.169 1605.5,152.836 1606,175.5C 1606.71,174.619 1607.54,173.953 1608.5,173.5C 1608.31,175.912 1606.97,176.912 1604.5,176.5C 1604.17,153.327 1604.5,130.327 1605.5,107.5 Z"/></g>
<g><path style="opacity:0.982" fill="#22fe63" d="M 1298.5,115.5 C 1296.58,123.899 1295.91,132.566 1296.5,141.5C 1276.83,141.5 1257.17,141.5 1237.5,141.5C 1237.5,154.167 1237.5,166.833 1237.5,179.5C 1239.74,179.795 1241.74,179.461 1243.5,178.5C 1243.83,178.5 1244.17,178.5 1244.5,178.5C 1260.84,178.333 1277.17,178.5 1293.5,179C 1294.41,180.699 1294.74,182.533 1294.5,184.5C 1292.53,192.433 1291.86,200.766 1292.5,209.5C 1274.17,209.5 1255.83,209.5 1237.5,209.5C 1237.5,222.5 1237.5,235.5 1237.5,248.5C 1239.74,248.795 1241.74,248.461 1243.5,247.5C 1243.83,247.5 1244.17,247.5 1244.5,247.5C 1263.51,247.167 1282.51,247.5 1301.5,248.5C 1302.31,250.071 1302.64,251.738 1302.5,253.5C 1301.51,253.328 1300.84,253.662 1300.5,254.5C 1299.51,262.316 1299.17,270.316 1299.5,278.5C 1267.66,278.168 1236,278.502 1204.5,279.5C 1204.5,280.167 1204.17,280.5 1203.5,280.5C 1201.86,280.714 1200.36,280.38 1199,279.5C 1198.17,223.126 1198.34,166.793 1199.5,110.5C 1231.83,109.333 1264.16,109.167 1296.5,110C 1298.19,111.401 1298.86,113.234 1298.5,115.5 Z"/></g>
<g><path style="opacity:0.99" fill="#fefefe" d="M 804.5,130.5 C 815.999,149.802 813.332,166.968 796.5,182C 791.058,186.054 785.058,189.054 778.5,191C 782.754,192.265 787.088,193.098 791.5,193.5C 798.936,196.594 805.27,201.26 810.5,207.5C 813.442,211.723 815.609,216.39 817,221.5C 820.975,250.402 809.142,269.235 781.5,278C 775.963,279.726 770.296,280.726 764.5,281C 741.169,281.5 717.836,281.667 694.5,281.5C 693.5,281.5 692.5,281.5 691.5,281.5C 691.5,225.167 691.5,168.833 691.5,112.5C 717.52,112.159 743.52,112.659 769.5,114C 783.32,115.246 794.986,120.746 804.5,130.5 Z M 769.5,152.5 C 773.043,166.921 767.71,176.088 753.5,180C 747.509,180.499 741.509,180.666 735.5,180.5C 735.5,169.5 735.5,158.5 735.5,147.5C 744.199,147.419 752.865,147.919 761.5,149C 764.071,150.454 766.738,151.62 769.5,152.5 Z M 774.5,220.5 C 780.976,236.383 775.976,246.883 759.5,252C 751.547,253.223 743.547,253.723 735.5,253.5C 735.5,240.833 735.5,228.167 735.5,215.5C 745.87,215.274 756.203,215.774 766.5,217C 769.11,218.481 771.777,219.648 774.5,220.5 Z"/></g>
<g><path style="opacity:1" fill="#7ed6be" d="M 370.5,93.5 C 371.645,97.3112 371.812,101.311 371,105.5C 368.719,108.063 367.552,111.063 367.5,114.5C 366.325,114.281 365.325,114.614 364.5,115.5C 360.286,119.877 356.286,124.377 352.5,129C 350.975,130.009 349.308,130.509 347.5,130.5C 345.882,128.215 343.882,126.215 341.5,124.5C 340.572,123.232 340.405,121.899 341,120.5C 348.175,113.957 355.009,107.124 361.5,100C 364.349,97.6552 367.349,95.4885 370.5,93.5 Z"/></g>
<g><path style="opacity:0.991" fill="#f1f3f3" d="M 506.5,103.5 C 516.062,101.995 523.229,105.328 528,113.5C 532.616,127.102 528.116,135.936 514.5,140C 506.163,140.251 499.33,137.084 494,130.5C 493.138,132.087 492.471,133.754 492,135.5C 487.446,140.054 482.946,144.554 478.5,149C 476.833,150 475.167,151 473.5,152C 457.837,152.5 442.17,152.667 426.5,152.5C 426.071,148.743 426.737,145.243 428.5,142C 442.831,140.445 457.164,139.112 471.5,138C 476.811,133.021 481.811,127.687 486.5,122C 488.221,121.261 489.887,120.427 491.5,119.5C 493.844,111.494 498.844,106.161 506.5,103.5 Z M 507.5,115.5 C 514.655,115.153 517.821,118.486 517,125.5C 510.58,130.421 506.08,129.088 503.5,121.5C 504.844,119.471 506.177,117.471 507.5,115.5 Z"/></g>
<g><path style="opacity:1" fill="#aedc67" d="M 274.5,94.5 C 275.833,95.5 277.167,96.5 278.5,97.5C 283.369,102.688 288.369,107.854 293.5,113C 294.094,113.464 294.761,113.631 295.5,113.5C 295.373,116.245 296.54,118.245 299,119.5C 299.49,120.793 299.657,122.127 299.5,123.5C 298.5,123.5 297.5,123.5 296.5,123.5C 296.167,126.5 294.5,128.167 291.5,128.5C 291.62,131.205 290.62,131.872 288.5,130.5C 287.355,131.776 287.355,133.109 288.5,134.5C 285.533,135.415 283.7,137.415 283,140.5C 280.508,142.789 278.008,145.123 275.5,147.5C 274.614,148.325 274.281,149.325 274.5,150.5C 272.721,151.67 271.721,153.336 271.5,155.5C 274.106,157.421 274.106,159.421 271.5,161.5C 273.261,163.253 274.594,165.253 275.5,167.5C 275.392,168.442 275.059,169.275 274.5,170C 272.741,170.798 271.074,170.631 269.5,169.5C 268.07,167.614 266.403,165.947 264.5,164.5C 263.571,163.311 263.238,161.978 263.5,160.5C 262.325,160.719 261.325,160.386 260.5,159.5C 252.309,145.743 248.309,130.743 248.5,114.5C 249.167,117.5 249.833,120.5 250.5,123.5C 251.291,126.789 251.958,130.122 252.5,133.5C 252.696,135.286 253.529,136.619 255,137.5C 255.498,140.482 255.665,143.482 255.5,146.5C 256.5,146.5 257.5,146.5 258.5,146.5C 259.822,149.874 260.656,153.208 261,156.5C 263.213,155.378 265.713,155.378 268.5,156.5C 268.338,154.473 268.505,152.473 269,150.5C 274.997,147.855 277.997,143.188 278,136.5C 281.688,131.274 284.522,125.607 286.5,119.5C 283.883,116.577 281.05,113.244 278,109.5C 278.063,105.558 276.397,102.558 273,100.5C 272.506,98.8659 272.34,97.1992 272.5,95.5C 271.5,95.5 270.5,95.5 269.5,95.5C 269.756,97.9124 268.756,99.5791 266.5,100.5C 266.938,101.506 267.604,101.506 268.5,100.5C 270.14,104.379 269.474,107.713 266.5,110.5C 265.702,108.922 265.202,107.256 265,105.5C 263.887,106.76 263.72,107.927 264.5,109C 263.956,109.717 263.289,110.217 262.5,110.5C 263.301,104.332 264.801,98.3324 267,92.5C 267.667,91.8333 268.333,91.1667 269,90.5C 270.018,92.9282 271.852,94.2615 274.5,94.5 Z"/></g>
<g><path style="opacity:0.716" fill="#010401" d="M 1298.5,115.5 C 1300.14,115.286 1301.64,115.62 1303,116.5C 1303.82,127.41 1303.65,138.243 1302.5,149C 1283.17,149.5 1263.84,149.667 1244.5,149.5C 1244.5,159.167 1244.5,168.833 1244.5,178.5C 1244.17,178.5 1243.83,178.5 1243.5,178.5C 1241.83,178.5 1240.17,178.5 1238.5,178.5C 1238.5,166.5 1238.5,154.5 1238.5,142.5C 1258.01,142.83 1277.34,142.497 1296.5,141.5C 1295.91,132.566 1296.58,123.899 1298.5,115.5 Z"/></g>
<g><path style="opacity:1" fill="#50bbd6" d="M 374.5,71.5 C 374.989,74.324 376.656,75.6574 379.5,75.5C 378.887,78.9694 380.221,80.9694 383.5,81.5C 384.574,85.1336 386.241,88.4669 388.5,91.5C 386.077,94.2061 384.91,93.5394 385,89.5C 383.868,91.3392 383.035,93.3392 382.5,95.5C 382.158,98.3642 382.824,101.198 384.5,104C 383.742,105.364 384.242,106.531 386,107.5C 386.523,99.5658 387.356,99.5658 388.5,107.5C 386.975,110.562 387.308,113.395 389.5,116C 388.874,116.75 388.374,117.584 388,118.5C 387.781,117.062 387.281,115.729 386.5,114.5C 385.409,112.985 384.076,112.152 382.5,112C 382.647,113.974 382.981,115.974 383.5,118C 382.5,119 381.5,120 380.5,121C 381.167,121.333 381.833,121.667 382.5,122C 376.881,124.395 372.047,127.895 368,132.5C 367.667,134.167 367.333,135.833 367,137.5C 363.26,139.657 362.426,142.657 364.5,146.5C 360.5,142.833 356.5,139.167 352.5,135.5C 353.496,135.586 354.329,135.252 355,134.5C 355.333,135.167 355.667,135.833 356,136.5C 357.512,135.743 358.846,134.743 360,133.5C 361.011,134.337 362.178,134.67 363.5,134.5C 364.067,131.529 365.067,128.695 366.5,126C 365.483,124.951 365.316,123.784 366,122.5C 368.692,119.308 371.192,115.975 373.5,112.5C 373.069,111.707 372.735,110.873 372.5,110C 375.474,104.915 376.141,99.5821 374.5,94C 377.014,91.9333 376.848,90.4333 374,89.5C 373.623,90.9423 372.79,91.9423 371.5,92.5C 371.269,89.9368 369.935,88.2702 367.5,87.5C 367.672,86.5084 367.338,85.8417 366.5,85.5C 366.414,84.5041 366.748,83.6708 367.5,83C 363.03,77.3003 363.53,72.1337 369,67.5C 368.689,68.9346 368.855,70.2679 369.5,71.5C 366.726,72.4151 366.893,74.0818 370,76.5C 370.154,73.4754 371.654,71.8087 374.5,71.5 Z"/></g>
<g><path style="opacity:1" fill="#2e4e65" d="M 339.5,111.5 C 327.156,121.514 315.49,132.181 304.5,143.5C 304.585,142.005 303.919,141.005 302.5,140.5C 299.968,142.947 297.634,145.614 295.5,148.5C 293.29,149.982 291.624,149.482 290.5,147C 294.986,142.565 299.319,137.898 303.5,133C 302.834,127.255 305.334,123.089 311,120.5C 312.353,121.685 313.52,123.019 314.5,124.5C 315.086,124.291 315.586,123.957 316,123.5C 317.242,119.748 318.742,116.081 320.5,112.5C 325.828,111.764 326.494,109.93 322.5,107C 328,101.827 332.833,101.994 337,107.5C 337.965,105.74 339.132,105.406 340.5,106.5C 339.691,108.071 339.357,109.738 339.5,111.5 Z"/></g>
<g><path style="opacity:1" fill="#afd855" d="M 250.5,123.5 C 250.34,121.801 250.506,120.134 251,118.5C 253.09,117.848 255.257,117.681 257.5,118C 259.267,115.456 260.934,112.956 262.5,110.5C 263.289,110.217 263.956,109.717 264.5,109C 263.72,107.927 263.887,106.76 265,105.5C 265.202,107.256 265.702,108.922 266.5,110.5C 269.474,107.713 270.14,104.379 268.5,100.5C 267.604,101.506 266.938,101.506 266.5,100.5C 268.756,99.5791 269.756,97.9124 269.5,95.5C 270.5,95.5 271.5,95.5 272.5,95.5C 272.34,97.1992 272.506,98.8659 273,100.5C 276.397,102.558 278.063,105.558 278,109.5C 281.05,113.244 283.883,116.577 286.5,119.5C 284.522,125.607 281.688,131.274 278,136.5C 277.997,143.188 274.997,147.855 269,150.5C 268.505,152.473 268.338,154.473 268.5,156.5C 265.713,155.378 263.213,155.378 261,156.5C 260.656,153.208 259.822,149.874 258.5,146.5C 257.5,146.5 256.5,146.5 255.5,146.5C 255.665,143.482 255.498,140.482 255,137.5C 253.529,136.619 252.696,135.286 252.5,133.5C 251.958,130.122 251.291,126.789 250.5,123.5 Z"/></g>
<g><path style="opacity:0.925" fill="#7ab8c4" d="M 64.5,124.5 C 57.0504,124.46 49.3837,124.627 41.5,125C 39.1526,125.436 36.8193,125.936 34.5,126.5C 33.5836,126.457 32.9169,126.124 32.5,125.5C 43.0779,120.695 53.7446,120.362 64.5,124.5 Z"/></g>
<g><path style="opacity:1" fill="#5ac3d0" d="M 352.5,135.5 C 351.139,133.473 349.473,131.806 347.5,130.5C 349.308,130.509 350.975,130.009 352.5,129C 356.286,124.377 360.286,119.877 364.5,115.5C 365.325,114.614 366.325,114.281 367.5,114.5C 367.552,111.063 368.719,108.063 371,105.5C 371.812,101.311 371.645,97.3112 370.5,93.5C 370.5,92.8333 370.833,92.5 371.5,92.5C 372.79,91.9423 373.623,90.9423 374,89.5C 376.848,90.4333 377.014,91.9333 374.5,94C 376.141,99.5821 375.474,104.915 372.5,110C 372.735,110.873 373.069,111.707 373.5,112.5C 371.192,115.975 368.692,119.308 366,122.5C 365.316,123.784 365.483,124.951 366.5,126C 365.067,128.695 364.067,131.529 363.5,134.5C 362.178,134.67 361.011,134.337 360,133.5C 358.846,134.743 357.512,135.743 356,136.5C 355.667,135.833 355.333,135.167 355,134.5C 354.329,135.252 353.496,135.586 352.5,135.5 Z"/></g>
<g><path style="opacity:0.983" fill="#fefefe" d="M 1017.5,129.5 C 1016.52,140.085 1016.19,150.752 1016.5,161.5C 1018.62,161.675 1020.62,161.341 1022.5,160.5C 1029.51,160.334 1036.51,160.5 1043.5,161C 1044.34,162.011 1044.67,163.178 1044.5,164.5C 1043.53,172.414 1043.2,180.414 1043.5,188.5C 1034.5,188.5 1025.5,188.5 1016.5,188.5C 1016.17,206.674 1016.5,224.674 1017.5,242.5C 1017.1,248.011 1019.43,251.678 1024.5,253.5C 1026.68,254.926 1029.18,255.592 1032,255.5C 1036.31,255.005 1040.48,254.005 1044.5,252.5C 1044.5,254.167 1044.5,255.833 1044.5,257.5C 1043.86,265.11 1043.2,272.777 1042.5,280.5C 1029,285.065 1015.33,285.565 1001.5,282C 996.278,279.898 991.611,277.064 987.5,273.5C 983.335,267.51 980.835,260.843 980,253.5C 979.5,234.17 979.333,214.836 979.5,195.5C 979.5,193.167 979.5,190.833 979.5,188.5C 973.741,188.214 968.075,188.548 962.5,189.5C 961.5,189.5 960.5,189.5 959.5,189.5C 959.5,183.833 959.5,178.167 959.5,172.5C 959.5,170.167 959.5,167.833 959.5,165.5C 959.286,163.856 959.62,162.356 960.5,161C 966.825,160.5 973.158,160.334 979.5,160.5C 979.5,151.833 979.5,143.167 979.5,134.5C 991.945,131.639 1004.28,128.305 1016.5,124.5C 1017.45,126.045 1017.79,127.712 1017.5,129.5 Z"/></g>
<g><path style="opacity:0.57" fill="#0d0d0d" d="M 1022.5,160.5 C 1020.62,161.341 1018.62,161.675 1016.5,161.5C 1016.19,150.752 1016.52,140.085 1017.5,129.5C 1019.01,128.272 1020.51,128.272 1022,129.5C 1022.5,139.828 1022.67,150.161 1022.5,160.5 Z"/></g>
<g><path style="opacity:1" fill="#b8f0f5" d="M 64.5,124.5 C 66.7496,125.13 68.7496,126.13 70.5,127.5C 70.0831,128.124 69.4164,128.457 68.5,128.5C 64.6704,126.688 60.6704,126.188 56.5,127C 55.8333,127.667 55.1667,128.333 54.5,129C 43.9975,130.034 34.9975,134.2 27.5,141.5C 24.4795,146.665 20.9795,151.332 17,155.5C 15.0532,154.956 14.2199,153.623 14.5,151.5C 14.9971,149.182 15.3305,146.848 15.5,144.5C 18.6925,135.973 24.3591,129.64 32.5,125.5C 32.9169,126.124 33.5836,126.457 34.5,126.5C 36.8193,125.936 39.1526,125.436 41.5,125C 49.3837,124.627 57.0504,124.46 64.5,124.5 Z"/></g>
<g><path style="opacity:1" fill="#152633" d="M 367.5,87.5 C 369.935,88.2702 371.269,89.9368 371.5,92.5C 370.833,92.5 370.5,92.8333 370.5,93.5C 367.349,95.4885 364.349,97.6552 361.5,100C 355.009,107.124 348.175,113.957 341,120.5C 340.405,121.899 340.572,123.232 341.5,124.5C 343.882,126.215 345.882,128.215 347.5,130.5C 349.473,131.806 351.139,133.473 352.5,135.5C 356.5,139.167 360.5,142.833 364.5,146.5C 367.088,148.957 369.421,151.623 371.5,154.5C 370.271,155.281 368.938,155.781 367.5,156C 364.272,160.14 360.605,163.806 356.5,167C 353.537,168.729 350.87,168.562 348.5,166.5C 342.167,160.5 335.833,154.5 329.5,148.5C 329.5,147.167 328.833,146.5 327.5,146.5C 325.712,142.369 322.712,141.035 318.5,142.5C 313.501,147.167 308.834,152.167 304.5,157.5C 302.833,157.5 301.167,157.5 299.5,157.5C 298.161,164.008 294.494,165.841 288.5,163C 289.167,162.333 289.833,161.667 290.5,161C 287.639,161.03 285.305,160.197 283.5,158.5C 287.509,158.414 291.176,157.248 294.5,155C 298.036,151.301 301.369,147.467 304.5,143.5C 315.49,132.181 327.156,121.514 339.5,111.5C 345.689,105.476 352.022,99.643 358.5,94C 361.61,93.3905 363.61,91.5572 364.5,88.5C 365.417,87.8728 366.417,87.5394 367.5,87.5 Z"/></g>
<g><path style="opacity:0.267" fill="#a2b176" d="M 604.5,127.5 C 591.367,123.355 578.367,123.522 565.5,128C 546.888,140.31 540.554,157.477 546.5,179.5C 539.03,156.414 545.696,138.581 566.5,126C 579.524,120.98 592.191,121.48 604.5,127.5 Z"/></g>
<g><path style="opacity:1" fill="#adda88" d="M 295.5,113.5 C 297.84,116.836 300.84,119.503 304.5,121.5C 301.145,125.187 297.811,128.853 294.5,132.5C 292.14,133.865 290.473,135.865 289.5,138.5C 288.417,138.539 287.417,138.873 286.5,139.5C 282.708,143.443 278.708,147.109 274.5,150.5C 274.281,149.325 274.614,148.325 275.5,147.5C 278.008,145.123 280.508,142.789 283,140.5C 283.7,137.415 285.533,135.415 288.5,134.5C 287.355,133.109 287.355,131.776 288.5,130.5C 290.62,131.872 291.62,131.205 291.5,128.5C 294.5,128.167 296.167,126.5 296.5,123.5C 297.5,123.5 298.5,123.5 299.5,123.5C 299.657,122.127 299.49,120.793 299,119.5C 296.54,118.245 295.373,116.245 295.5,113.5 Z"/></g>
<g><path style="opacity:0.727" fill="#070707" d="M 804.5,130.5 C 813.079,137.336 817.079,146.336 816.5,157.5C 815.976,175.01 807.642,187.01 791.5,193.5C 787.088,193.098 782.754,192.265 778.5,191C 785.058,189.054 791.058,186.054 796.5,182C 813.332,166.968 815.999,149.802 804.5,130.5 Z"/></g>
<g><path style="opacity:1" fill="#66c8e2" d="M 70.5,127.5 C 75.6654,129.338 79.9987,132.338 83.5,136.5C 81.3523,136.389 81.019,137.056 82.5,138.5C 81.4099,140.003 80.2433,140.336 79,139.5C 78.4818,142.023 77.1485,144.023 75,145.5C 74.461,148.529 73.7943,151.529 73,154.5C 72.6271,152.302 72.1271,150.135 71.5,148C 71.1639,146.97 70.4972,146.47 69.5,146.5C 58.3485,146.165 47.0151,146.165 35.5,146.5C 35.3347,150.182 35.5014,153.848 36,157.5C 38.529,159.559 39.6957,162.226 39.5,165.5C 36.6538,171.522 35.3204,177.855 35.5,184.5C 46.5813,184.81 57.5813,184.477 68.5,183.5C 58.2191,185.476 47.5524,186.143 36.5,185.5C 35.7611,185.369 35.0944,185.536 34.5,186C 35.3468,188.718 36.3468,191.384 37.5,194C 32.9403,196.523 29.607,195.357 27.5,190.5C 25.7749,189.985 24.1083,189.318 22.5,188.5C 20.2903,184.426 17.6237,180.759 14.5,177.5C 13.8165,177.863 13.1499,178.196 12.5,178.5C 11.5974,174.72 10.9308,170.886 10.5,167C 11.7821,163.759 11.4488,160.925 9.5,158.5C 10.3061,153.21 12.3061,148.543 15.5,144.5C 15.3305,146.848 14.9971,149.182 14.5,151.5C 14.2199,153.623 15.0532,154.956 17,155.5C 20.9795,151.332 24.4795,146.665 27.5,141.5C 34.9975,134.2 43.9975,130.034 54.5,129C 55.1667,128.333 55.8333,127.667 56.5,127C 60.6704,126.188 64.6704,126.688 68.5,128.5C 69.4164,128.457 70.0831,128.124 70.5,127.5 Z"/></g>
<g><path style="opacity:1" fill="#4aaed2" d="M 374.5,67.5 C 396.092,92.7747 400.925,121.108 389,152.5C 371.232,188.633 342.399,202.799 302.5,195C 296.543,192.19 290.543,189.69 284.5,187.5C 286.167,187.5 287.833,187.5 289.5,187.5C 291.284,187.893 292.95,188.559 294.5,189.5C 296.685,189.112 298.518,188.112 300,186.5C 301.077,188.509 302.243,190.843 303.5,193.5C 306.833,193.5 310.167,193.5 313.5,193.5C 313.281,192.325 313.614,191.325 314.5,190.5C 315.833,190.167 317.167,189.833 318.5,189.5C 319.657,185.514 322.324,183.681 326.5,184C 329.275,182.733 331.941,181.233 334.5,179.5C 338.013,181.131 341.013,180.464 343.5,177.5C 345.343,178.939 347.01,178.772 348.5,177C 345.898,175.985 344.065,174.152 343,171.5C 340.948,173.643 338.781,175.643 336.5,177.5C 334.786,174.225 335.619,171.892 339,170.5C 339.687,168.432 339.52,166.432 338.5,164.5C 339.723,163.386 341.056,163.219 342.5,164C 344.018,165.848 345.851,167.348 348,168.5C 348.464,167.906 348.631,167.239 348.5,166.5C 350.87,168.562 353.537,168.729 356.5,167C 360.605,163.806 364.272,160.14 367.5,156C 368.938,155.781 370.271,155.281 371.5,154.5C 369.421,151.623 367.088,148.957 364.5,146.5C 362.426,142.657 363.26,139.657 367,137.5C 367.333,135.833 367.667,134.167 368,132.5C 372.047,127.895 376.881,124.395 382.5,122C 381.833,121.667 381.167,121.333 380.5,121C 381.5,120 382.5,119 383.5,118C 382.981,115.974 382.647,113.974 382.5,112C 384.076,112.152 385.409,112.985 386.5,114.5C 387.281,115.729 387.781,117.062 388,118.5C 388.374,117.584 388.874,116.75 389.5,116C 387.308,113.395 386.975,110.562 388.5,107.5C 387.356,99.5658 386.523,99.5658 386,107.5C 384.242,106.531 383.742,105.364 384.5,104C 382.824,101.198 382.158,98.3642 382.5,95.5C 383.035,93.3392 383.868,91.3392 385,89.5C 384.91,93.5394 386.077,94.2061 388.5,91.5C 386.241,88.4669 384.574,85.1336 383.5,81.5C 380.221,80.9694 378.887,78.9694 379.5,75.5C 376.656,75.6574 374.989,74.324 374.5,71.5C 374.5,70.1667 374.5,68.8333 374.5,67.5 Z"/></g>
<g><path style="opacity:1" fill="#c4d561" d="M 604.5,127.5 C 609.089,129.124 612.423,132.124 614.5,136.5C 618.487,142.806 621.654,149.473 624,156.5C 624.667,161.167 624.667,165.833 624,170.5C 621.896,176.702 620.396,183.036 619.5,189.5C 618.5,191.167 617.167,192.5 615.5,193.5C 607.872,202.946 597.872,207.612 585.5,207.5C 568.735,206.545 556.235,198.878 548,184.5C 546.991,182.975 546.491,181.308 546.5,179.5C 540.554,157.477 546.888,140.31 565.5,128C 578.367,123.522 591.367,123.355 604.5,127.5 Z M 577.5,142.5 C 584.799,141.489 591.466,142.989 597.5,147C 600.688,151.185 604.188,155.018 608,158.5C 611.576,166.132 609.576,171.466 602,174.5C 600.027,177.617 598.193,180.784 596.5,184C 589.703,186.831 582.87,186.997 576,184.5C 571.988,178.655 567.154,173.655 561.5,169.5C 562.024,167.617 562.691,165.784 563.5,164C 562.346,161.563 561.846,159.063 562,156.5C 567.388,151.939 572.554,147.272 577.5,142.5 Z M 582.5,157.5 C 589.586,158.397 591.753,162.064 589,168.5C 583.866,173.982 580.032,172.982 577.5,165.5C 578.191,162.095 579.858,159.429 582.5,157.5 Z"/></g>
<g><path style="opacity:0.69" fill="#070707" d="M 769.5,152.5 C 766.738,151.62 764.071,150.454 761.5,149C 752.865,147.919 744.199,147.419 735.5,147.5C 735.5,158.5 735.5,169.5 735.5,180.5C 733.621,181.341 731.621,181.675 729.5,181.5C 729.5,168.167 729.5,154.833 729.5,141.5C 739.956,140.99 750.29,141.823 760.5,144C 764.679,145.681 767.679,148.515 769.5,152.5 Z"/></g>
<g><path style="opacity:1" fill="#0e6427" d="M 1296.5,141.5 C 1277.34,142.497 1258.01,142.83 1238.5,142.5C 1238.5,154.5 1238.5,166.5 1238.5,178.5C 1240.17,178.5 1241.83,178.5 1243.5,178.5C 1241.74,179.461 1239.74,179.795 1237.5,179.5C 1237.5,166.833 1237.5,154.167 1237.5,141.5C 1257.17,141.5 1276.83,141.5 1296.5,141.5 Z"/></g>
<g><path style="opacity:1" fill="#233b4b" d="M 347.5,78.5 C 352.978,78.369 358.311,79.2023 363.5,81C 364.399,82.6516 365.399,84.1516 366.5,85.5C 367.338,85.8417 367.672,86.5084 367.5,87.5C 366.417,87.5394 365.417,87.8728 364.5,88.5C 363.61,91.5572 361.61,93.3905 358.5,94C 352.022,99.643 345.689,105.476 339.5,111.5C 339.357,109.738 339.691,108.071 340.5,106.5C 339.132,105.406 337.965,105.74 337,107.5C 332.833,101.994 328,101.827 322.5,107C 326.494,109.93 325.828,111.764 320.5,112.5C 318.742,116.081 317.242,119.748 316,123.5C 315.586,123.957 315.086,124.291 314.5,124.5C 313.52,123.019 312.353,121.685 311,120.5C 305.334,123.089 302.834,127.255 303.5,133C 299.319,137.898 294.986,142.565 290.5,147C 291.624,149.482 293.29,149.982 295.5,148.5C 297.634,145.614 299.968,142.947 302.5,140.5C 303.919,141.005 304.585,142.005 304.5,143.5C 301.369,147.467 298.036,151.301 294.5,155C 291.176,157.248 287.509,158.414 283.5,158.5C 280.833,157.5 278.167,156.5 275.5,155.5C 275.343,154.127 275.51,152.793 276,151.5C 281.663,148.336 286.163,144.003 289.5,138.5C 290.473,135.865 292.14,133.865 294.5,132.5C 298.402,130.107 301.902,127.107 305,123.5C 305.494,121.866 305.66,120.199 305.5,118.5C 303.302,117.986 301.302,116.986 299.5,115.5C 294.156,110.113 288.823,104.779 283.5,99.5C 284.376,98.7492 285.376,98.2492 286.5,98C 284.111,95.4334 282.445,92.4334 281.5,89C 282.148,87.5603 282.481,86.0603 282.5,84.5C 284.144,84.2865 285.644,84.6198 287,85.5C 287.374,84.5838 287.874,83.7504 288.5,83C 291.167,82.3333 293.833,82.3333 296.5,83C 297.337,84.0113 297.67,85.1779 297.5,86.5C 299.167,86.5 300.833,86.5 302.5,86.5C 304.179,87.9163 305.846,89.2497 307.5,90.5C 311.808,95.4065 316.641,99.7398 322,103.5C 331.02,95.6467 339.52,87.3133 347.5,78.5 Z"/></g>
<g><path style="opacity:0.85" fill="#f5f9fa" d="M 119.5,103.5 C 132.705,102.558 141.039,108.391 144.5,121C 150.277,119.997 154.11,122.163 156,127.5C 159.867,131.702 164.033,135.535 168.5,139C 184.143,140.216 199.81,140.716 215.5,140.5C 215.879,144.015 216.879,147.348 218.5,150.5C 218.291,151.086 217.957,151.586 217.5,152C 200.122,152.928 182.789,152.595 165.5,151C 162.567,149.729 159.901,148.062 157.5,146C 154.667,141.833 151.167,138.333 147,135.5C 146.044,132.623 144.711,129.956 143,127.5C 134.275,142.222 123.275,144.222 110,133.5C 102.615,120.154 105.782,110.154 119.5,103.5 Z M 121.5,115.5 C 126.955,114.888 130.288,117.222 131.5,122.5C 130.349,128.091 127.016,129.925 121.5,128C 120.584,127.626 119.75,127.126 119,126.5C 117.812,122.259 118.645,118.592 121.5,115.5 Z"/></g>
<g><path style="opacity:0.983" fill="#22fc63" d="M 1545.5,165.5 C 1545.17,165.5 1544.83,165.5 1544.5,165.5C 1543.83,174.5 1543.17,183.5 1542.5,192.5C 1530.39,185.411 1517.39,183.577 1503.5,187C 1487.29,195.586 1480.79,209.086 1484,227.5C 1485.7,233.94 1488.53,239.774 1492.5,245C 1493.45,245.483 1494.45,245.649 1495.5,245.5C 1505.58,252.736 1516.58,254.57 1528.5,251C 1534.22,248.801 1539.89,246.634 1545.5,244.5C 1545.5,246.5 1545.5,248.5 1545.5,250.5C 1544.56,258.779 1544.23,267.112 1544.5,275.5C 1526.99,281.882 1508.99,283.716 1490.5,281C 1479.76,277.743 1470.09,272.576 1461.5,265.5C 1449.93,253.489 1444.26,238.989 1444.5,222C 1445.57,183.266 1465.24,161.266 1503.5,156C 1515.26,155.065 1526.93,155.731 1538.5,158C 1543.15,158.481 1545.49,160.981 1545.5,165.5 Z"/></g>
<g><path style="opacity:0.985" fill="#22fd64" d="M 1804.5,174.5 C 1805.45,177.143 1806.45,179.81 1807.5,182.5C 1807.69,185.855 1808.69,188.855 1810.5,191.5C 1811.47,220.808 1811.8,250.142 1811.5,279.5C 1800.99,279.172 1790.65,279.506 1780.5,280.5C 1778.22,280.923 1776.55,280.256 1775.5,278.5C 1776.51,273.204 1776.68,267.871 1776,262.5C 1763.45,280.191 1746.62,286.024 1725.5,280C 1720.83,278.334 1716.5,276.167 1712.5,273.5C 1704.86,266.033 1701.53,256.867 1702.5,246C 1701.55,231.236 1707.22,219.903 1719.5,212C 1724.42,209.804 1729.42,207.804 1734.5,206C 1747.46,203.959 1760.46,202.292 1773.5,201C 1774.58,200.326 1775.25,199.326 1775.5,198C 1775.06,196.175 1774.72,194.342 1774.5,192.5C 1773.09,187.919 1770.09,184.752 1765.5,183C 1757.85,181.246 1750.18,181.079 1742.5,182.5C 1739.85,182.41 1737.51,183.076 1735.5,184.5C 1731.33,185.502 1727.33,187.002 1723.5,189C 1721.36,189.876 1720.03,191.376 1719.5,193.5C 1718.18,194.942 1716.51,195.608 1714.5,195.5C 1714.33,185.494 1714.5,175.494 1715,165.5C 1736.64,155.869 1759.14,153.369 1782.5,158C 1792.03,160.709 1799.36,166.209 1804.5,174.5 Z M 1775.5,230.5 C 1773.74,249.931 1763.4,257.264 1744.5,252.5C 1742.18,241.279 1746.85,234.779 1758.5,233C 1764.2,232.075 1769.87,231.242 1775.5,230.5 Z"/></g>
<g><path style="opacity:0.982" fill="#22fd64" d="M 1949.5,170.5 C 1952.42,176.489 1954.59,182.822 1956,189.5C 1956.5,219.498 1956.67,249.498 1956.5,279.5C 1945.32,279.172 1934.32,279.505 1923.5,280.5C 1921.83,280.5 1920.17,280.5 1918.5,280.5C 1918.67,254.165 1918.5,227.831 1918,201.5C 1917.11,198.97 1915.94,196.637 1914.5,194.5C 1914.94,194.565 1915.27,194.399 1915.5,194C 1914.81,192.933 1914.31,191.766 1914,190.5C 1912.23,189.696 1910.73,188.529 1909.5,187C 1892.99,181.919 1882.66,187.752 1878.5,204.5C 1877.5,228.994 1877.17,253.661 1877.5,278.5C 1866.65,278.172 1855.99,278.506 1845.5,279.5C 1844.83,279.5 1844.5,279.833 1844.5,280.5C 1842.83,280.5 1841.17,280.5 1839.5,280.5C 1839.33,239.832 1839.5,199.165 1840,158.5C 1852.76,157.345 1865.59,157.178 1878.5,158C 1879.41,159.699 1879.74,161.533 1879.5,163.5C 1879.5,164.167 1879.17,164.5 1878.5,164.5C 1877.19,168.683 1877.19,173.016 1878.5,177.5C 1879.11,177.376 1879.44,177.043 1879.5,176.5C 1881.1,174.302 1882.43,171.969 1883.5,169.5C 1892.6,159.801 1903.94,155.135 1917.5,155.5C 1926.43,155.583 1934.76,157.75 1942.5,162C 1945.42,164.416 1947.76,167.25 1949.5,170.5 Z"/></g>
<g><path style="opacity:0.983" fill="#22fd64" d="M 2105.5,163.5 C 2104.88,163.611 2104.38,163.944 2104,164.5C 2103.67,201.167 2103.33,237.833 2103,274.5C 2099.46,308.878 2080.62,328.878 2046.5,334.5C 2037.18,335.232 2027.85,335.566 2018.5,335.5C 2010.03,334.94 2001.7,333.606 1993.5,331.5C 1991.83,331.249 1990.33,330.582 1989,329.5C 1988.5,318.839 1988.33,308.172 1988.5,297.5C 1990.53,297.338 1992.53,297.505 1994.5,298C 2009.88,306.729 2026.21,309.062 2043.5,305C 2055.64,300.224 2062.64,291.391 2064.5,278.5C 2066.42,273.439 2066.92,268.105 2066,262.5C 2051.94,280.465 2033.77,286.298 2011.5,280C 2005.73,277.904 2000.73,274.571 1996.5,270C 1995.55,269.517 1994.55,269.351 1993.5,269.5C 1982,256.109 1977,240.442 1978.5,222.5C 1976.22,197.579 1984.89,177.745 2004.5,163C 2022.07,153.514 2039.74,153.181 2057.5,162C 2060.33,164.167 2062.83,166.667 2065,169.5C 2065.2,165.579 2065.7,161.745 2066.5,158C 2078.83,157.333 2091.17,157.333 2103.5,158C 2105.16,159.444 2105.82,161.278 2105.5,163.5 Z M 2060.5,195.5 C 2066.05,204.676 2067.88,214.676 2066,225.5C 2064.52,240.839 2056.36,250.173 2041.5,253.5C 2036.62,252.39 2031.95,250.723 2027.5,248.5C 2021.36,233.633 2021.53,218.633 2028,203.5C 2032.36,196.481 2038.69,192.481 2047,191.5C 2051.66,192.418 2056.16,193.751 2060.5,195.5 Z"/></g>
<g><path style="opacity:0.983" fill="#22fd64" d="M 2234.5,177.5 C 2237.07,184.327 2239.4,191.327 2241.5,198.5C 2242.27,208.815 2242.6,219.148 2242.5,229.5C 2216.5,229.5 2190.5,229.5 2164.5,229.5C 2164.22,231.415 2164.55,233.081 2165.5,234.5C 2166.87,239.743 2169.2,244.576 2172.5,249C 2173.45,249.483 2174.45,249.649 2175.5,249.5C 2177.78,250.64 2180.11,251.807 2182.5,253C 2193.16,254.961 2203.83,254.961 2214.5,253C 2221.02,250.775 2227.35,248.275 2233.5,245.5C 2233.5,247.833 2233.5,250.167 2233.5,252.5C 2232.87,259.445 2232.2,266.445 2231.5,273.5C 2206.65,284.121 2181.65,284.954 2156.5,276C 2151.4,272.468 2146.4,268.968 2141.5,265.5C 2133.19,255.856 2128.36,244.523 2127,231.5C 2123.55,205.048 2131.71,183.214 2151.5,166C 2173.04,153.636 2195.37,152.303 2218.5,162C 2224.67,166.335 2230,171.501 2234.5,177.5 Z M 2204.5,191.5 C 2206.11,196.007 2206.78,200.673 2206.5,205.5C 2195.17,205.5 2183.83,205.5 2172.5,205.5C 2178.64,190.43 2189.31,185.763 2204.5,191.5 Z"/></g>
<g><path style="opacity:1" fill="#86d3a9" d="M 327.5,146.5 C 327.663,148.857 327.497,151.19 327,153.5C 316.308,163.572 305.808,173.738 295.5,184C 293.783,185.559 291.783,186.392 289.5,186.5C 288.761,186.631 288.094,186.464 287.5,186C 293.568,181.964 295.235,176.63 292.5,170C 293.416,169.722 294.082,169.222 294.5,168.5C 297.89,164.782 301.223,161.115 304.5,157.5C 308.834,152.167 313.501,147.167 318.5,142.5C 322.712,141.035 325.712,142.369 327.5,146.5 Z"/></g>
<g><path style="opacity:0.996" fill="#ecedee" d="M 502.5,152.5 C 511.932,151.216 518.932,154.716 523.5,163C 527.167,163.333 530.833,163.667 534.5,164C 536.472,166.856 537.305,170.023 537,173.5C 532.661,174.985 528.161,175.818 523.5,176C 517.151,185.402 508.484,188.068 497.5,184C 496.219,181.597 494.386,179.763 492,178.5C 491.517,177.552 491.351,176.552 491.5,175.5C 466.513,176.397 441.513,176.731 416.5,176.5C 415.987,172.21 416.987,168.377 419.5,165C 443.175,164.615 466.842,163.948 490.5,163C 491.13,161.108 492.13,159.441 493.5,158C 496.263,155.626 499.263,153.792 502.5,152.5 Z M 503.5,163.5 C 512.603,162.222 515.27,165.722 511.5,174C 502.069,176.05 499.402,172.55 503.5,163.5 Z"/></g>
<g><path style="opacity:0.984" fill="#fdfdfd" d="M 1159.5,176.5 C 1159.74,178.404 1160.74,179.738 1162.5,180.5C 1167.2,189.599 1169.87,199.266 1170.5,209.5C 1170.5,216.833 1170.5,224.167 1170.5,231.5C 1144.5,231.5 1118.5,231.5 1092.5,231.5C 1092.22,233.415 1092.55,235.081 1093.5,236.5C 1094.12,242.414 1096.79,247.08 1101.5,250.5C 1108.68,255.911 1116.85,258.244 1126,257.5C 1138.08,257.72 1149.25,254.72 1159.5,248.5C 1160.45,250.045 1160.79,251.712 1160.5,253.5C 1160.67,260.841 1160.5,268.174 1160,275.5C 1137.08,285.629 1113.58,287.129 1089.5,280C 1080.06,275.475 1072.06,269.309 1065.5,261.5C 1054.43,240.387 1052.6,218.387 1060,195.5C 1073.61,167.275 1096.11,155.108 1127.5,159C 1140.44,160.966 1151.11,166.8 1159.5,176.5 Z M 1132.5,193.5 C 1135.02,198.149 1136.02,203.149 1135.5,208.5C 1123.17,208.5 1110.83,208.5 1098.5,208.5C 1104.7,191.392 1116.03,186.392 1132.5,193.5 Z"/></g>
<g><path style="opacity:0.983" fill="#22fc64" d="M 1359.5,164.5 C 1358.96,164.56 1358.62,164.893 1358.5,165.5C 1364.65,177.802 1370.82,190.136 1377,202.5C 1377.61,200.846 1378.11,199.179 1378.5,197.5C 1384.71,184.617 1391.37,171.951 1398.5,159.5C 1412.83,158.167 1427.17,158.167 1441.5,159.5C 1440.24,161.029 1439.24,162.695 1438.5,164.5C 1436.63,164.859 1435.13,165.859 1434,167.5C 1422.64,184.03 1411.47,200.697 1400.5,217.5C 1413.19,237.556 1425.85,257.556 1438.5,277.5C 1425.17,278.167 1411.83,278.833 1398.5,279.5C 1398.5,279.833 1398.5,280.167 1398.5,280.5C 1397.32,280.719 1396.32,280.386 1395.5,279.5C 1390.04,268.913 1384.38,258.579 1378.5,248.5C 1378.31,244.117 1376.97,240.117 1374.5,236.5C 1367.2,250.424 1359.87,264.424 1352.5,278.5C 1340.11,279.185 1327.77,279.852 1315.5,280.5C 1313.17,280.5 1310.83,280.5 1308.5,280.5C 1310.7,275.768 1313.2,271.102 1316,266.5C 1327.01,251.139 1337.51,235.472 1347.5,219.5C 1335.2,199.524 1322.87,179.524 1310.5,159.5C 1325.83,158.167 1341.17,158.167 1356.5,159.5C 1357.76,161.029 1358.76,162.695 1359.5,164.5 Z"/></g>
<g><path style="opacity:1" fill="#e7fafb" d="M 69.5,146.5 C 69.5,149.167 69.5,151.833 69.5,154.5C 68.1276,156.868 66.1276,158.535 63.5,159.5C 57.8748,158.592 52.2081,158.258 46.5,158.5C 46.4971,163.527 46.1637,168.527 45.5,173.5C 49.8461,173.666 54.1794,173.499 58.5,173C 60.1554,171.556 60.822,169.722 60.5,167.5C 62.4672,167.261 64.3005,167.594 66,168.5C 68.2348,173.187 69.0682,178.187 68.5,183.5C 57.5813,184.477 46.5813,184.81 35.5,184.5C 35.3204,177.855 36.6538,171.522 39.5,165.5C 39.6957,162.226 38.529,159.559 36,157.5C 35.5014,153.848 35.3347,150.182 35.5,146.5C 47.0151,146.165 58.3485,146.165 69.5,146.5 Z"/></g>
<g><path style="opacity:0.993" fill="#edeeef" d="M 224.5,167.5 C 224.833,170.167 225.167,172.833 225.5,175.5C 217.981,175.175 210.648,175.508 203.5,176.5C 203.167,176.5 202.833,176.5 202.5,176.5C 187.169,175.617 171.669,174.95 156,174.5C 151.771,174.51 147.938,175.177 144.5,176.5C 141.31,183.1 135.977,186.1 128.5,185.5C 125.433,185.393 122.433,184.893 119.5,184C 116.462,181.297 113.795,178.297 111.5,175C 107.514,174.501 103.514,174.334 99.5,174.5C 98.57,170.949 98.9033,167.449 100.5,164C 104.541,163.827 108.541,163.327 112.5,162.5C 117.809,153.519 125.476,150.686 135.5,154C 140.115,155.778 143.115,158.944 144.5,163.5C 171.167,163.801 197.834,164.134 224.5,164.5C 224.5,165.5 224.5,166.5 224.5,167.5 Z M 126.5,163.5 C 136.215,163.864 137.881,167.698 131.5,175C 124.149,175.143 121.482,171.643 123.5,164.5C 124.791,164.737 125.791,164.404 126.5,163.5 Z"/></g>
<g><path style="opacity:0.985" fill="#fefefe" d="M 868.5,165.5 C 877.578,193.568 885.745,221.901 893,250.5C 893.838,246.792 894.671,243.125 895.5,239.5C 903.169,213.494 910.836,187.494 918.5,161.5C 931.184,161.168 943.851,161.501 956.5,162.5C 955.873,163.417 955.539,164.417 955.5,165.5C 937.538,210.872 920.038,256.539 903,302.5C 889.242,331.795 866.409,343.129 834.5,336.5C 833.828,335.733 832.995,335.066 832,334.5C 831.5,324.839 831.334,315.172 831.5,305.5C 837.053,307.238 842.72,308.572 848.5,309.5C 855.206,309.215 860.706,306.548 865,301.5C 868.557,294.819 871.724,287.986 874.5,281C 858.167,241.333 841.833,201.667 825.5,162C 839.5,161.333 853.5,161.333 867.5,162C 868.337,163.011 868.67,164.178 868.5,165.5 Z"/></g>
<g><path style="opacity:0.795" fill="#adc37a" d="M 614.5,136.5 C 616.017,136.511 617.184,137.177 618,138.5C 626.264,151.085 628.598,164.752 625,179.5C 623.392,183.056 621.559,186.389 619.5,189.5C 620.396,183.036 621.896,176.702 624,170.5C 624.667,165.833 624.667,161.167 624,156.5C 621.654,149.473 618.487,142.806 614.5,136.5 Z"/></g>
<g><path style="opacity:0.768" fill="#020803" d="M 1879.5,163.5 C 1880.83,163.5 1882.17,163.5 1883.5,163.5C 1883.5,165.5 1883.5,167.5 1883.5,169.5C 1882.43,171.969 1881.1,174.302 1879.5,176.5C 1878.52,172.702 1878.18,168.702 1878.5,164.5C 1879.17,164.5 1879.5,164.167 1879.5,163.5 Z"/></g>
<g><path style="opacity:0.718" fill="#020903" d="M 2105.5,163.5 C 2107.39,163.297 2108.89,163.963 2110,165.5C 2110.67,201.167 2110.67,236.833 2110,272.5C 2109.53,312.304 2089.69,335.47 2050.5,342C 2036.79,342.884 2023.13,342.551 2009.5,341C 2004.33,339.793 1999.33,338.126 1994.5,336C 1993.62,334.644 1993.29,333.144 1993.5,331.5C 2001.7,333.606 2010.03,334.94 2018.5,335.5C 2026.99,336.657 2035.66,336.824 2044.5,336C 2045.42,335.722 2046.08,335.222 2046.5,334.5C 2080.62,328.878 2099.46,308.878 2103,274.5C 2103.33,237.833 2103.67,201.167 2104,164.5C 2104.38,163.944 2104.88,163.611 2105.5,163.5 Z"/></g>
<g><path style="opacity:1" fill="#8cc2d4" d="M 69.5,154.5 C 69.1543,157.885 68.4877,161.218 67.5,164.5C 69.4564,170.914 69.7897,177.248 68.5,183.5C 69.0682,178.187 68.2348,173.187 66,168.5C 64.3005,167.594 62.4672,167.261 60.5,167.5C 60.822,169.722 60.1554,171.556 58.5,173C 54.1794,173.499 49.8461,173.666 45.5,173.5C 46.1637,168.527 46.4971,163.527 46.5,158.5C 52.2081,158.258 57.8748,158.592 63.5,159.5C 66.1276,158.535 68.1276,156.868 69.5,154.5 Z"/></g>
<g><path style="opacity:1" fill="#183427" d="M 289.5,138.5 C 286.163,144.003 281.663,148.336 276,151.5C 275.51,152.793 275.343,154.127 275.5,155.5C 278.167,156.5 280.833,157.5 283.5,158.5C 285.305,160.197 287.639,161.03 290.5,161C 289.833,161.667 289.167,162.333 288.5,163C 294.494,165.841 298.161,164.008 299.5,157.5C 301.167,157.5 302.833,157.5 304.5,157.5C 301.223,161.115 297.89,164.782 294.5,168.5C 286.448,166.626 279.781,162.46 274.5,156C 273.552,155.517 272.552,155.351 271.5,155.5C 271.721,153.336 272.721,151.67 274.5,150.5C 278.708,147.109 282.708,143.443 286.5,139.5C 287.417,138.873 288.417,138.539 289.5,138.5 Z"/></g>
<g><path style="opacity:0.638" fill="#020202" d="M 1044.5,164.5 C 1045.82,164.33 1046.99,164.663 1048,165.5C 1048.5,175.494 1048.67,185.494 1048.5,195.5C 1039.83,195.5 1031.17,195.5 1022.5,195.5C 1022.33,214.17 1022.5,232.836 1023,251.5C 1023.72,252.044 1024.22,252.711 1024.5,253.5C 1019.43,251.678 1017.1,248.011 1017.5,242.5C 1017.5,224.833 1017.5,207.167 1017.5,189.5C 1026.35,189.826 1035.02,189.493 1043.5,188.5C 1043.2,180.414 1043.53,172.414 1044.5,164.5 Z"/></g>
<g><path style="opacity:0.319" fill="#020b03" d="M 1359.5,164.5 C 1361.07,164.937 1362.24,165.937 1363,167.5C 1367.59,177.891 1372.76,187.891 1378.5,197.5C 1378.11,199.179 1377.61,200.846 1377,202.5C 1370.82,190.136 1364.65,177.802 1358.5,165.5C 1358.62,164.893 1358.96,164.56 1359.5,164.5 Z"/></g>
<g><path style="opacity:0.764" fill="#030a03" d="M 1438.5,164.5 C 1441.25,164.187 1443.91,164.52 1446.5,165.5C 1433.5,184.833 1420.5,204.167 1407.5,223.5C 1419.18,242.872 1431.35,261.872 1444,280.5C 1445.13,282.345 1445.63,284.345 1445.5,286.5C 1430.49,286.833 1415.49,286.499 1400.5,285.5C 1399.54,283.925 1398.88,282.258 1398.5,280.5C 1398.5,280.167 1398.5,279.833 1398.5,279.5C 1412.18,279.833 1425.85,279.499 1439.5,278.5C 1439.38,277.893 1439.04,277.56 1438.5,277.5C 1425.85,257.556 1413.19,237.556 1400.5,217.5C 1411.47,200.697 1422.64,184.03 1434,167.5C 1435.13,165.859 1436.63,164.859 1438.5,164.5 Z"/></g>
<g><path style="opacity:0.549" fill="#060606" d="M 868.5,165.5 C 869.833,165.5 871.167,165.5 872.5,165.5C 879.563,190.436 887.229,215.103 895.5,239.5C 894.671,243.125 893.838,246.792 893,250.5C 885.745,221.901 877.578,193.568 868.5,165.5 Z"/></g>
<g><path style="opacity:0.753" fill="#070707" d="M 955.5,165.5 C 956.833,165.5 958.167,165.5 959.5,165.5C 959.5,167.833 959.5,170.167 959.5,172.5C 942.683,217.045 925.85,261.712 909,306.5C 903.335,319.661 894.502,330.161 882.5,338C 867.608,345.445 852.274,346.445 836.5,341C 834.963,339.89 834.297,338.39 834.5,336.5C 866.409,343.129 889.242,331.795 903,302.5C 920.038,256.539 937.538,210.872 955.5,165.5 Z"/></g>
<g><path style="opacity:0.719" fill="#020903" d="M 1544.5,165.5 C 1544.83,165.5 1545.17,165.5 1545.5,165.5C 1546.93,165.421 1548.26,165.754 1549.5,166.5C 1550.5,177.814 1550.83,189.147 1550.5,200.5C 1544.45,197.484 1538.12,194.984 1531.5,193C 1506.55,189.646 1492.55,200.479 1489.5,225.5C 1490.11,232.664 1492.11,239.331 1495.5,245.5C 1494.45,245.649 1493.45,245.483 1492.5,245C 1488.53,239.774 1485.7,233.94 1484,227.5C 1480.79,209.086 1487.29,195.586 1503.5,187C 1517.39,183.577 1530.39,185.411 1542.5,192.5C 1542.56,193.043 1542.89,193.376 1543.5,193.5C 1544.5,184.19 1544.83,174.857 1544.5,165.5 Z"/></g>
<g><path style="opacity:1" fill="#0f742d" d="M 1878.5,164.5 C 1878.18,168.702 1878.52,172.702 1879.5,176.5C 1879.44,177.043 1879.11,177.376 1878.5,177.5C 1877.19,173.016 1877.19,168.683 1878.5,164.5 Z"/></g>
<g><path style="opacity:1" fill="#8cc074" d="M 247.5,108.5 C 248.461,110.265 248.795,112.265 248.5,114.5C 248.309,130.743 252.309,145.743 260.5,159.5C 261.325,160.386 262.325,160.719 263.5,160.5C 263.238,161.978 263.571,163.311 264.5,164.5C 266.403,165.947 268.07,167.614 269.5,169.5C 271.074,170.631 272.741,170.798 274.5,170C 275.059,169.275 275.392,168.442 275.5,167.5C 274.594,165.253 273.261,163.253 271.5,161.5C 274.106,159.421 274.106,157.421 271.5,155.5C 272.552,155.351 273.552,155.517 274.5,156C 279.781,162.46 286.448,166.626 294.5,168.5C 294.082,169.222 293.416,169.722 292.5,170C 295.235,176.63 293.568,181.964 287.5,186C 288.094,186.464 288.761,186.631 289.5,186.5C 289.5,186.833 289.5,187.167 289.5,187.5C 287.833,187.5 286.167,187.5 284.5,187.5C 282.407,186.955 280.407,186.122 278.5,185C 267.568,173.645 258.735,160.812 252,146.5C 247.703,134.127 246.203,121.46 247.5,108.5 Z"/></g>
<g><path style="opacity:1" fill="#4db8d3" d="M 329.5,148.5 C 335.833,154.5 342.167,160.5 348.5,166.5C 348.631,167.239 348.464,167.906 348,168.5C 345.851,167.348 344.018,165.848 342.5,164C 341.056,163.219 339.723,163.386 338.5,164.5C 339.52,166.432 339.687,168.432 339,170.5C 335.619,171.892 334.786,174.225 336.5,177.5C 338.781,175.643 340.948,173.643 343,171.5C 344.065,174.152 345.898,175.985 348.5,177C 347.01,178.772 345.343,178.939 343.5,177.5C 341.013,180.464 338.013,181.131 334.5,179.5C 331.941,181.233 329.275,182.733 326.5,184C 322.324,183.681 319.657,185.514 318.5,189.5C 317.167,189.833 315.833,190.167 314.5,190.5C 313.614,191.325 313.281,192.325 313.5,193.5C 310.167,193.5 306.833,193.5 303.5,193.5C 302.243,190.843 301.077,188.509 300,186.5C 298.518,188.112 296.685,189.112 294.5,189.5C 295.029,187.417 296.029,185.583 297.5,184C 303.113,180.798 308.279,176.965 313,172.5C 316.408,164.338 322.075,158.338 330,154.5C 330.49,152.455 330.323,150.455 329.5,148.5 Z"/></g>
<g><path style="opacity:0.71" fill="#010501" d="M 1676.5,171.5 C 1682.66,177.487 1686.5,184.821 1688,193.5C 1689.43,224.473 1689.93,255.473 1689.5,286.5C 1676.5,286.5 1663.5,286.5 1650.5,286.5C 1650.5,284.833 1650.5,283.167 1650.5,281.5C 1650.33,280.508 1650.66,279.842 1651.5,279.5C 1662.17,279.5 1672.83,279.5 1683.5,279.5C 1683.83,249.995 1683.5,220.662 1682.5,191.5C 1682.5,191.167 1682.5,190.833 1682.5,190.5C 1682.28,186.838 1681.28,183.505 1679.5,180.5C 1677.9,177.715 1676.9,174.715 1676.5,171.5 Z"/></g>
<g><path style="opacity:0.343" fill="#b8b8bb" d="M 202.5,176.5 C 183.082,176.322 163.748,176.322 144.5,176.5C 147.938,175.177 151.771,174.51 156,174.5C 171.669,174.95 187.169,175.617 202.5,176.5 Z"/></g>
<g><path style="opacity:0.658" fill="#061007" d="M 1949.5,170.5 C 1953.62,174.056 1956.79,178.389 1959,183.5C 1960.81,189.732 1962.14,196.065 1963,202.5C 1963.67,230.167 1963.67,257.833 1963,285.5C 1949.91,286.489 1936.75,286.823 1923.5,286.5C 1923.5,284.5 1923.5,282.5 1923.5,280.5C 1934.32,279.505 1945.32,279.172 1956.5,279.5C 1956.67,249.498 1956.5,219.498 1956,189.5C 1954.59,182.822 1952.42,176.489 1949.5,170.5 Z"/></g>
<g><path style="opacity:0.133" fill="#969a9f" d="M 224.5,167.5 C 226.118,170.171 226.785,173.171 226.5,176.5C 218.833,176.5 211.167,176.5 203.5,176.5C 210.648,175.508 217.981,175.175 225.5,175.5C 225.167,172.833 224.833,170.167 224.5,167.5 Z"/></g>
<g><path style="opacity:1" fill="#70c7b7" d="M 327.5,146.5 C 328.833,146.5 329.5,147.167 329.5,148.5C 330.323,150.455 330.49,152.455 330,154.5C 322.075,158.338 316.408,164.338 313,172.5C 308.279,176.965 303.113,180.798 297.5,184C 296.029,185.583 295.029,187.417 294.5,189.5C 292.95,188.559 291.284,187.893 289.5,187.5C 289.5,187.167 289.5,186.833 289.5,186.5C 291.783,186.392 293.783,185.559 295.5,184C 305.808,173.738 316.308,163.572 327,153.5C 327.497,151.19 327.663,148.857 327.5,146.5 Z"/></g>
<g><path style="opacity:0.666" fill="#061006" d="M 1804.5,174.5 C 1805.5,174.414 1806.33,174.748 1807,175.5C 1812.19,182.703 1815.53,190.703 1817,199.5C 1818.59,228.141 1818.92,256.808 1818,285.5C 1805.58,286.489 1793.08,286.822 1780.5,286.5C 1780.5,284.5 1780.5,282.5 1780.5,280.5C 1790.65,279.506 1800.99,279.172 1811.5,279.5C 1811.8,250.142 1811.47,220.808 1810.5,191.5C 1810.47,188.084 1809.47,185.084 1807.5,182.5C 1806.45,179.81 1805.45,177.143 1804.5,174.5 Z"/></g>
<g><path style="opacity:0.149" fill="#262626" d="M 1159.5,176.5 C 1161.26,177.262 1162.26,178.596 1162.5,180.5C 1160.74,179.738 1159.74,178.404 1159.5,176.5 Z"/></g>
<g><path style="opacity:1" fill="#128233" d="M 1544.5,165.5 C 1544.83,174.857 1544.5,184.19 1543.5,193.5C 1542.89,193.376 1542.56,193.043 1542.5,192.5C 1543.17,183.5 1543.83,174.5 1544.5,165.5 Z"/></g>
<g><path style="opacity:1" fill="#4d9bbb" d="M 83.5,136.5 C 92.1139,147.337 94.9473,159.67 92,173.5C 89.1472,190.019 79.6472,200.519 63.5,205C 48.8749,208.342 35.2082,206.009 22.5,198C 10.8854,187.322 6.55209,174.156 9.5,158.5C 11.4488,160.925 11.7821,163.759 10.5,167C 10.9308,170.886 11.5974,174.72 12.5,178.5C 14.6435,181.122 15.9769,184.122 16.5,187.5C 17.5,187.5 18.5,187.5 19.5,187.5C 19.2471,189.827 19.9137,191.827 21.5,193.5C 26.3125,196.119 31.3125,198.285 36.5,200C 48.2833,202.063 59.95,201.563 71.5,198.5C 73.5314,196.751 73.8647,194.751 72.5,192.5C 74.0134,191.154 75.3467,189.654 76.5,188C 76.3552,187.228 76.0219,186.561 75.5,186C 71.8778,186.045 68.3778,186.879 65,188.5C 55.3009,188.006 45.8009,187.006 36.5,185.5C 47.5524,186.143 58.2191,185.476 68.5,183.5C 69.7897,177.248 69.4564,170.914 67.5,164.5C 68.4877,161.218 69.1543,157.885 69.5,154.5C 69.5,151.833 69.5,149.167 69.5,146.5C 70.4972,146.47 71.1639,146.97 71.5,148C 72.1271,150.135 72.6271,152.302 73,154.5C 73.7943,151.529 74.461,148.529 75,145.5C 77.1485,144.023 78.4818,142.023 79,139.5C 80.2433,140.336 81.4099,140.003 82.5,138.5C 81.019,137.056 81.3523,136.389 83.5,136.5 Z"/></g>
<g><path style="opacity:0.674" fill="#010101" d="M 1162.5,180.5 C 1167.73,185.291 1171.23,191.291 1173,198.5C 1175.86,211.416 1176.69,224.416 1175.5,237.5C 1149.84,238.5 1124.18,238.833 1098.5,238.5C 1098.33,242.811 1099.33,246.811 1101.5,250.5C 1096.79,247.08 1094.12,242.414 1093.5,236.5C 1093.5,235.167 1093.5,233.833 1093.5,232.5C 1119.5,232.5 1145.5,232.5 1171.5,232.5C 1171.83,224.648 1171.49,216.982 1170.5,209.5C 1169.87,199.266 1167.2,189.599 1162.5,180.5 Z"/></g>
<g><path style="opacity:0.761" fill="#030a03" d="M 1774.5,192.5 C 1766.5,188.602 1758.17,187.769 1749.5,190C 1739.18,192.159 1729.51,195.992 1720.5,201.5C 1719.52,198.914 1719.19,196.247 1719.5,193.5C 1720.03,191.376 1721.36,189.876 1723.5,189C 1727.33,187.002 1731.33,185.502 1735.5,184.5C 1738.15,184.59 1740.49,183.924 1742.5,182.5C 1750.18,181.079 1757.85,181.246 1765.5,183C 1770.09,184.752 1773.09,187.919 1774.5,192.5 Z"/></g>
<g><path style="opacity:0.78" fill="#040e05" d="M 2204.5,191.5 C 2189.31,185.763 2178.64,190.43 2172.5,205.5C 2169.95,206.388 2167.28,206.721 2164.5,206.5C 2165.44,196.452 2170.11,188.618 2178.5,183C 2187.56,180.03 2195.73,181.53 2203,187.5C 2203.79,188.745 2204.29,190.078 2204.5,191.5 Z"/></g>
<g><path style="opacity:1" fill="#128334" d="M 1679.5,180.5 C 1681.28,183.505 1682.28,186.838 1682.5,190.5C 1680.72,187.495 1679.72,184.162 1679.5,180.5 Z"/></g>
<g><path style="opacity:1" fill="#107a30" d="M 1742.5,182.5 C 1740.49,183.924 1738.15,184.59 1735.5,184.5C 1737.51,183.076 1739.85,182.41 1742.5,182.5 Z"/></g>
<g><path style="opacity:0.682" fill="#010401" d="M 2234.5,177.5 C 2240.71,183.919 2244.88,191.586 2247,200.5C 2249.06,212.482 2249.56,224.482 2248.5,236.5C 2222.84,237.5 2197.18,237.833 2171.5,237.5C 2171.45,242.007 2172.78,246.007 2175.5,249.5C 2174.45,249.649 2173.45,249.483 2172.5,249C 2169.2,244.576 2166.87,239.743 2165.5,234.5C 2165.5,233.167 2165.5,231.833 2165.5,230.5C 2191.34,230.831 2217.01,230.498 2242.5,229.5C 2243.17,225.681 2243.5,221.681 2243.5,217.5C 2243.64,210.935 2242.97,204.601 2241.5,198.5C 2239.4,191.327 2237.07,184.327 2234.5,177.5 Z"/></g>
<g><path style="opacity:0.757" fill="#0c0c0c" d="M 1132.5,193.5 C 1116.03,186.392 1104.7,191.392 1098.5,208.5C 1096.52,209.694 1094.52,209.694 1092.5,208.5C 1094.23,197.216 1100.23,189.049 1110.5,184C 1118.36,182.192 1125.2,184.025 1131,189.5C 1131.79,190.745 1132.29,192.078 1132.5,193.5 Z"/></g>
<g><path style="opacity:0.719" fill="#000401" d="M 1294.5,184.5 C 1296.14,184.286 1297.64,184.62 1299,185.5C 1299.82,196.077 1299.65,206.577 1298.5,217C 1280.5,217.5 1262.5,217.667 1244.5,217.5C 1244.5,227.5 1244.5,237.5 1244.5,247.5C 1244.17,247.5 1243.83,247.5 1243.5,247.5C 1241.83,247.5 1240.17,247.5 1238.5,247.5C 1238.5,235.167 1238.5,222.833 1238.5,210.5C 1256.67,210.83 1274.67,210.497 1292.5,209.5C 1291.86,200.766 1292.53,192.433 1294.5,184.5 Z"/></g>
<g><path style="opacity:0.737" fill="#020802" d="M 1642.5,195.5 C 1629.12,189.131 1619.29,192.798 1613,206.5C 1611.55,233.129 1611.05,259.796 1611.5,286.5C 1598.17,286.5 1584.83,286.5 1571.5,286.5C 1571.5,284.833 1571.5,283.167 1571.5,281.5C 1571.83,280.833 1572.17,280.167 1572.5,279.5C 1583.5,279.5 1594.5,279.5 1605.5,279.5C 1605.2,253.141 1605.54,226.808 1606.5,200.5C 1614.7,182.838 1626.53,179.838 1642,191.5C 1642.49,192.793 1642.66,194.127 1642.5,195.5 Z"/></g>
<g><path style="opacity:0.803" fill="#010501" d="M 1914.5,194.5 C 1901.5,189.741 1892,193.741 1886,206.5C 1885.12,209.789 1884.45,213.123 1884,216.5C 1883.5,239.831 1883.33,263.164 1883.5,286.5C 1870.5,286.5 1857.5,286.5 1844.5,286.5C 1844.5,284.5 1844.5,282.5 1844.5,280.5C 1844.5,279.833 1844.83,279.5 1845.5,279.5C 1856.5,279.5 1867.5,279.5 1878.5,279.5C 1878.5,254.5 1878.5,229.5 1878.5,204.5C 1882.66,187.752 1892.99,181.919 1909.5,187C 1910.73,188.529 1912.23,189.696 1914,190.5C 1914.31,191.766 1914.81,192.933 1915.5,194C 1915.27,194.399 1914.94,194.565 1914.5,194.5 Z"/></g>
<g><path style="opacity:0.735" fill="#020702" d="M 2047.5,185.5 C 2051.05,186.517 2054.39,188.017 2057.5,190C 2059.61,191.264 2060.61,193.097 2060.5,195.5C 2056.16,193.751 2051.66,192.418 2047,191.5C 2038.69,192.481 2032.36,196.481 2028,203.5C 2021.53,218.633 2021.36,233.633 2027.5,248.5C 2021.55,243.714 2018.21,237.381 2017.5,229.5C 2017.07,220.383 2017.74,211.383 2019.5,202.5C 2021.31,195.697 2025.31,190.697 2031.5,187.5C 2036.68,185.915 2042.01,185.248 2047.5,185.5 Z"/></g>
<g><path style="opacity:1" fill="#10451d" d="M 2047.5,185.5 C 2042.01,185.248 2036.68,185.915 2031.5,187.5C 2032.84,186.207 2034.51,185.374 2036.5,185C 2040.36,184.19 2044.02,184.357 2047.5,185.5 Z"/></g>
<g><path style="opacity:0.718" fill="#a1b069" d="M 611.5,161.5 C 612.196,166.162 611.196,170.329 608.5,174C 606.101,174.731 603.935,175.898 602,177.5C 600.531,180.584 598.698,183.417 596.5,186C 590.068,187.775 583.734,188.108 577.5,187C 573.387,185.594 571.053,182.761 570.5,178.5C 567.45,179.077 565.45,177.91 564.5,175C 563.207,174.51 561.873,174.343 560.5,174.5C 558.299,174.142 556.965,172.808 556.5,170.5C 557.079,166.993 558.079,163.659 559.5,160.5C 559.32,159.446 558.987,158.446 558.5,157.5C 563.713,151.856 569.38,146.689 575.5,142C 581.917,141.13 588.251,141.464 594.5,143C 600.394,147.729 605.727,152.896 610.5,158.5C 611.386,159.325 611.719,160.325 611.5,161.5 Z M 577.5,142.5 C 572.554,147.272 567.388,151.939 562,156.5C 561.846,159.063 562.346,161.563 563.5,164C 562.691,165.784 562.024,167.617 561.5,169.5C 567.154,173.655 571.988,178.655 576,184.5C 582.87,186.997 589.703,186.831 596.5,184C 598.193,180.784 600.027,177.617 602,174.5C 609.576,171.466 611.576,166.132 608,158.5C 604.188,155.018 600.688,151.185 597.5,147C 591.466,142.989 584.799,141.489 577.5,142.5 Z M 582.5,157.5 C 579.858,159.429 578.191,162.095 577.5,165.5C 580.032,172.982 583.866,173.982 589,168.5C 591.753,162.064 589.586,158.397 582.5,157.5 Z"/></g>
<g><path style="opacity:0.994" fill="#d2dcab" d="M 595.5,171.5 C 593.975,173.216 592.975,175.216 592.5,177.5C 587.634,181.937 582.301,182.437 576.5,179C 574.859,177.871 573.859,176.371 573.5,174.5C 573.938,174.565 574.272,174.399 574.5,174C 573.177,173.184 572.511,172.017 572.5,170.5C 573.708,169.766 575.041,169.433 576.5,169.5C 574.988,160.926 578.321,156.426 586.5,156C 588.241,157.62 590.075,159.12 592,160.5C 592.48,164.627 593.646,168.293 595.5,171.5 Z M 582.5,157.5 C 579.858,159.429 578.191,162.095 577.5,165.5C 580.032,172.982 583.866,173.982 589,168.5C 591.753,162.064 589.586,158.397 582.5,157.5 Z"/></g>
<g><path style="opacity:0.361" fill="#b9c0a7" d="M 592.5,177.5 C 592.975,175.216 593.975,173.216 595.5,171.5C 599.087,168.316 600.254,164.316 599,159.5C 586.388,143.63 576.555,145.13 569.5,164C 569.657,166.675 570.657,168.841 572.5,170.5C 572.511,172.017 573.177,173.184 574.5,174C 574.272,174.399 573.938,174.565 573.5,174.5C 568.197,170.23 566.697,164.897 569,158.5C 571.463,155.035 574.296,151.869 577.5,149C 582.624,146.93 587.624,147.264 592.5,150C 604.443,159.198 604.443,168.364 592.5,177.5 Z M 582.5,157.5 C 579.858,159.429 578.191,162.095 577.5,165.5C 580.032,172.982 583.866,173.982 589,168.5C 591.753,162.064 589.586,158.397 582.5,157.5 Z"/></g>
<g><path style="opacity:1" fill="#f7f8e1" d="M 595.5,171.5 C 593.646,168.293 592.48,164.627 592,160.5C 590.075,159.12 588.241,157.62 586.5,156C 578.321,156.426 574.988,160.926 576.5,169.5C 575.041,169.433 573.708,169.766 572.5,170.5C 570.657,168.841 569.657,166.675 569.5,164C 576.555,145.13 586.388,143.63 599,159.5C 600.254,164.316 599.087,168.316 595.5,171.5 Z"/></g>
<g><path style="opacity:1" fill="#138b37" d="M 1807.5,182.5 C 1809.47,185.084 1810.47,188.084 1810.5,191.5C 1808.69,188.855 1807.69,185.855 1807.5,182.5 Z"/></g>
<g><path style="opacity:1" fill="#b3c843" d="M 615.5,193.5 C 614.504,193.414 613.671,193.748 613,194.5C 612.667,193.5 612.333,192.5 612,191.5C 611.788,193.78 610.955,195.78 609.5,197.5C 605.767,200.091 601.767,202.258 597.5,204C 584.874,205.337 572.874,203.337 561.5,198C 558.931,195.547 556.598,192.88 554.5,190C 555.167,188.667 555.833,187.333 556.5,186C 555.711,184.374 554.711,182.874 553.5,181.5C 555.636,180.528 556.803,178.861 557,176.5C 558,175.167 559,175.167 560,176.5C 560.464,175.906 560.631,175.239 560.5,174.5C 561.873,174.343 563.207,174.51 564.5,175C 565.45,177.91 567.45,179.077 570.5,178.5C 571.053,182.761 573.387,185.594 577.5,187C 583.734,188.108 590.068,187.775 596.5,186C 598.698,183.417 600.531,180.584 602,177.5C 603.935,175.898 606.101,174.731 608.5,174C 611.196,170.329 612.196,166.162 611.5,161.5C 612.117,161.611 612.617,161.944 613,162.5C 613.273,160.671 614.107,159.171 615.5,158C 615.167,157.667 614.833,157.333 614.5,157C 616.101,156.727 617.601,156.227 619,155.5C 619.667,164.167 619.667,172.833 619,181.5C 618.333,182.167 617.667,182.833 617,183.5C 616.545,186.854 616.045,190.187 615.5,193.5 Z"/></g>
<g><path style="opacity:0.639" fill="#121212" d="M 979.5,195.5 C 974.156,195.666 968.823,195.499 963.5,195C 962.594,193.301 962.261,191.467 962.5,189.5C 968.075,188.548 973.741,188.214 979.5,188.5C 979.5,190.833 979.5,193.167 979.5,195.5 Z"/></g>
<g><path style="opacity:1" fill="#41a6cc" d="M 36.5,185.5 C 45.8009,187.006 55.3009,188.006 65,188.5C 68.3778,186.879 71.8778,186.045 75.5,186C 76.0219,186.561 76.3552,187.228 76.5,188C 75.3467,189.654 74.0134,191.154 72.5,192.5C 73.8647,194.751 73.5314,196.751 71.5,198.5C 59.95,201.563 48.2833,202.063 36.5,200C 31.3125,198.285 26.3125,196.119 21.5,193.5C 19.9137,191.827 19.2471,189.827 19.5,187.5C 18.5,187.5 17.5,187.5 16.5,187.5C 15.9769,184.122 14.6435,181.122 12.5,178.5C 13.1499,178.196 13.8165,177.863 14.5,177.5C 17.6237,180.759 20.2903,184.426 22.5,188.5C 24.1083,189.318 25.7749,189.985 27.5,190.5C 29.607,195.357 32.9403,196.523 37.5,194C 36.3468,191.384 35.3468,188.718 34.5,186C 35.0944,185.536 35.7611,185.369 36.5,185.5 Z"/></g>
<g><path style="opacity:0.993" fill="#f7f9f9" d="M 438.5,290.5 C 437.596,291.209 437.263,292.209 437.5,293.5C 436.448,293.351 435.448,293.517 434.5,294C 432.36,297.307 430.026,300.474 427.5,303.5C 423.886,304.82 420.22,305.987 416.5,307C 415.833,307.667 415.167,308.333 414.5,309C 409.77,309.509 405.103,310.342 400.5,311.5C 397.452,313.046 395.286,315.38 394,318.5C 392.167,317.333 390.667,315.833 389.5,314C 391.764,312.742 394.098,311.575 396.5,310.5C 395.546,304.896 395.212,299.229 395.5,293.5C 395.916,291.248 397.249,289.748 399.5,289C 403.418,287.844 407.418,287.344 411.5,287.5C 411.656,266.825 411.323,246.159 410.5,225.5C 410.824,215.491 411.324,205.491 412,195.5C 422.09,194.679 432.256,194.179 442.5,194C 447.567,190.889 453.067,188.722 459,187.5C 463.844,187.839 468.01,189.673 471.5,193C 475.87,193.919 480.203,194.919 484.5,196C 500.404,211.782 516.071,227.782 531.5,244C 532.5,244.667 533.5,244.667 534.5,244C 547.704,234.473 559.87,235.64 571,247.5C 577.575,260.72 575.075,271.887 563.5,281C 549.963,287.155 539.129,283.988 531,271.5C 529.084,266.351 528.084,261.017 528,255.5C 510.532,240.366 494.032,224.199 478.5,207C 477.167,206.333 475.833,206.333 474.5,207C 473.378,209.124 471.878,210.957 470,212.5C 469.5,221.827 469.334,231.161 469.5,240.5C 478.859,242.168 483.859,247.835 484.5,257.5C 483.157,270.174 476.157,275.674 463.5,274C 449.238,268.621 445.738,259.121 453,245.5C 455.144,244.354 456.977,242.854 458.5,241C 457.227,233.032 457.227,224.865 458.5,216.5C 452.38,215.558 447.713,212.391 444.5,207C 437.508,206.5 430.508,206.334 423.5,206.5C 424.038,233.012 424.038,259.345 423.5,285.5C 423.608,286.442 423.941,287.275 424.5,288C 429.458,288.029 434.124,288.862 438.5,290.5 Z M 456.5,197.5 C 463.707,196.431 466.04,199.264 463.5,206C 454.779,208.446 452.446,205.612 456.5,197.5 Z M 550.5,251.5 C 559.78,253.283 562.447,258.616 558.5,267.5C 553.963,271.455 549.463,271.455 545,267.5C 543,263.167 543,258.833 545,254.5C 546.876,253.391 548.709,252.391 550.5,251.5 Z M 464.5,252.5 C 471.019,252.345 473.352,255.345 471.5,261.5C 466.325,264.542 462.992,263.042 461.5,257C 462.222,255.249 463.222,253.749 464.5,252.5 Z"/></g>
<g><path style="opacity:1" fill="#434343" d="M 1043.5,188.5 C 1035.02,189.493 1026.35,189.826 1017.5,189.5C 1017.5,207.167 1017.5,224.833 1017.5,242.5C 1016.5,224.674 1016.17,206.674 1016.5,188.5C 1025.5,188.5 1034.5,188.5 1043.5,188.5 Z"/></g>
<g><path style="opacity:0.149" fill="#c0c8cc" d="M 269.5,191.5 C 271.956,195.738 272.956,200.404 272.5,205.5C 304.835,205.667 337.168,205.5 369.5,205C 370.423,202.959 370.756,200.792 370.5,198.5C 371.814,200.895 371.814,203.395 370.5,206C 337.502,206.5 304.502,206.667 271.5,206.5C 270.942,201.484 270.275,196.484 269.5,191.5 Z"/></g>
<g><path style="opacity:0.743" fill="#050505" d="M 810.5,207.5 C 817.466,213.083 821.633,220.416 823,229.5C 823.866,263.318 807.366,282.484 773.5,287C 747.5,287.667 721.5,287.667 695.5,287C 694.594,285.301 694.261,283.467 694.5,281.5C 717.836,281.667 741.169,281.5 764.5,281C 770.296,280.726 775.963,279.726 781.5,278C 809.142,269.235 820.975,250.402 817,221.5C 815.609,216.39 813.442,211.723 810.5,207.5 Z"/></g>
<g><path style="opacity:0.693" fill="#050505" d="M 774.5,220.5 C 771.777,219.648 769.11,218.481 766.5,217C 756.203,215.774 745.87,215.274 735.5,215.5C 735.5,228.167 735.5,240.833 735.5,253.5C 733.5,253.5 731.5,253.5 729.5,253.5C 729.5,238.833 729.5,224.167 729.5,209.5C 740.549,209.15 751.549,209.65 762.5,211C 767.919,212.523 771.919,215.69 774.5,220.5 Z"/></g>
<g><path style="opacity:1" fill="#0f6a2a" d="M 1292.5,209.5 C 1274.67,210.497 1256.67,210.83 1238.5,210.5C 1238.5,222.833 1238.5,235.167 1238.5,247.5C 1240.17,247.5 1241.83,247.5 1243.5,247.5C 1241.74,248.461 1239.74,248.795 1237.5,248.5C 1237.5,235.5 1237.5,222.5 1237.5,209.5C 1255.83,209.5 1274.17,209.5 1292.5,209.5 Z"/></g>
<g><path style="opacity:1" fill="#083e19" d="M 2241.5,198.5 C 2242.97,204.601 2243.64,210.935 2243.5,217.5C 2243.5,221.681 2243.17,225.681 2242.5,229.5C 2242.6,219.148 2242.27,208.815 2241.5,198.5 Z"/></g>
<g><path style="opacity:1" fill="#0d5a24" d="M 2019.5,202.5 C 2017.74,211.383 2017.07,220.383 2017.5,229.5C 2016.35,222.679 2016.18,215.679 2017,208.5C 2017.57,206.277 2018.4,204.277 2019.5,202.5 Z"/></g>
<g><path style="opacity:0.027" fill="#aeaeb1" d="M 320.5,219.5 C 304.497,219.333 288.497,219.5 272.5,220C 271.221,222.498 271.221,224.998 272.5,227.5C 271.5,227.5 270.5,227.5 269.5,227.5C 269.223,224.552 269.556,221.719 270.5,219C 287.338,218.172 304.005,218.338 320.5,219.5 Z"/></g>
<g><path style="opacity:0.996" fill="#128233" d="M 1772.5,223.5 C 1773.92,222.549 1775.59,222.216 1777.5,222.5C 1777.8,225.059 1777.47,227.393 1776.5,229.5C 1776.5,227.5 1776.5,225.5 1776.5,223.5C 1775.17,223.5 1773.83,223.5 1772.5,223.5 Z"/></g>
<g><path style="opacity:1" fill="#0c5923" d="M 1761.5,224.5 C 1758.03,225.525 1754.36,226.192 1750.5,226.5C 1753.84,224.783 1757.51,224.116 1761.5,224.5 Z"/></g>
<g><path style="opacity:0.796" fill="#030a03" d="M 1772.5,223.5 C 1773.83,223.5 1775.17,223.5 1776.5,223.5C 1776.5,225.5 1776.5,227.5 1776.5,229.5C 1775.83,229.5 1775.5,229.833 1775.5,230.5C 1769.87,231.242 1764.2,232.075 1758.5,233C 1746.85,234.779 1742.18,241.279 1744.5,252.5C 1741.18,251.342 1739.01,249.008 1738,245.5C 1735.93,235.069 1740.1,228.736 1750.5,226.5C 1754.36,226.192 1758.03,225.525 1761.5,224.5C 1765.1,223.656 1768.77,223.323 1772.5,223.5 Z"/></g>
<g><path style="opacity:0.196" fill="#d3d6d8" d="M 359.5,219.5 C 363.646,218.353 367.98,218.186 372.5,219C 373.116,220.4 373.449,221.9 373.5,223.5C 373.064,226.083 372.397,228.083 371.5,229.5C 338.543,228.884 305.543,228.217 272.5,227.5C 304.835,227.667 337.168,227.5 369.5,227C 371.542,225.059 372.208,222.892 371.5,220.5C 367.555,219.509 363.555,219.176 359.5,219.5 Z"/></g>
<g><path style="opacity:1" fill="#16a541" d="M 1682.5,191.5 C 1683.5,220.662 1683.83,249.995 1683.5,279.5C 1672.83,279.5 1662.17,279.5 1651.5,279.5C 1661.65,278.506 1671.99,278.172 1682.5,278.5C 1682.5,249.5 1682.5,220.5 1682.5,191.5 Z"/></g>
<g><path style="opacity:1" fill="#0c5d25" d="M 2242.5,229.5 C 2217.01,230.498 2191.34,230.831 2165.5,230.5C 2165.5,231.833 2165.5,233.167 2165.5,234.5C 2164.55,233.081 2164.22,231.415 2164.5,229.5C 2190.5,229.5 2216.5,229.5 2242.5,229.5 Z"/></g>
<g><path style="opacity:0.604" fill="#b2bdc0" d="M 256.5,197.5 C 257.33,207.325 257.83,217.325 258,227.5C 258.667,229.5 259.333,231.5 260,233.5C 261.892,235.054 263.392,236.888 264.5,239C 264.022,240.642 263.022,241.809 261.5,242.5C 261.33,241.178 261.663,240.011 262.5,239C 259.926,237.086 258.093,234.586 257,231.5C 256.5,220.172 256.333,208.838 256.5,197.5 Z"/></g>
<g><path style="opacity:1" fill="#a1a1a1" d="M 1170.5,209.5 C 1171.49,216.982 1171.83,224.648 1171.5,232.5C 1145.5,232.5 1119.5,232.5 1093.5,232.5C 1093.5,233.833 1093.5,235.167 1093.5,236.5C 1092.55,235.081 1092.22,233.415 1092.5,231.5C 1118.5,231.5 1144.5,231.5 1170.5,231.5C 1170.5,224.167 1170.5,216.833 1170.5,209.5 Z"/></g>
<g><path style="opacity:0.035" fill="#9f9fa2" d="M 277.5,240.5 C 307.664,239.336 337.997,239.169 368.5,240C 369.814,242.605 369.814,245.105 368.5,247.5C 368.756,245.208 368.423,243.041 367.5,241C 337.502,240.5 307.502,240.333 277.5,240.5 Z"/></g>
<g><path style="opacity:0.769" fill="#030b04" d="M 1378.5,248.5 C 1371.84,260.799 1365.17,273.132 1358.5,285.5C 1343.51,286.499 1328.51,286.833 1313.5,286.5C 1313.7,284.315 1314.37,282.315 1315.5,280.5C 1327.77,279.852 1340.11,279.185 1352.5,278.5C 1359.87,264.424 1367.2,250.424 1374.5,236.5C 1376.97,240.117 1378.31,244.117 1378.5,248.5 Z"/></g>
<g><path style="opacity:0.995" fill="#f0f2f2" d="M 229.5,286.5 C 225.731,286.244 222.064,286.577 218.5,287.5C 217.584,260.514 217.25,233.514 217.5,206.5C 209.826,206.334 202.159,206.5 194.5,207C 193.968,209.463 192.634,211.297 190.5,212.5C 186.773,214.252 182.773,214.919 178.5,214.5C 178.334,223.839 178.5,233.173 179,242.5C 179.29,244.044 179.956,245.377 181,246.5C 181.617,245.551 181.451,244.718 180.5,244C 181.449,243.383 182.282,243.549 183,244.5C 183.034,246.18 183.201,247.68 183.5,249C 184.76,250.113 185.927,250.28 187,249.5C 189.053,253.586 189.887,257.92 189.5,262.5C 188.243,267.602 185.243,271.435 180.5,274C 170.482,277.242 162.649,274.409 157,265.5C 152.345,253.139 156.179,244.472 168.5,239.5C 169.833,230.833 169.833,222.167 168.5,213.5C 166.4,210.52 163.9,208.187 161,206.5C 145.104,222.561 128.938,238.561 112.5,254.5C 113.751,265.824 109.751,274.658 100.5,281C 80.2125,287.365 68.2125,280.199 64.5,259.5C 66.087,245.854 73.7536,238.187 87.5,236.5C 93.8551,237 99.5218,239.166 104.5,243C 105.5,243.667 106.5,243.667 107.5,243C 121.889,227.947 136.222,212.947 150.5,198C 154.807,195.447 159.307,194.947 164,196.5C 170.194,187.547 178.36,185.047 188.5,189C 190.712,191.043 192.712,193.209 194.5,195.5C 205.925,194.62 217.592,194.287 229.5,194.5C 230.632,225.17 230.632,255.836 229.5,286.5 Z M 176.5,197.5 C 181.835,197.005 184.335,199.338 184,204.5C 180.667,208.5 177.333,208.5 174,204.5C 173.333,203.167 173.333,201.833 174,200.5C 175.045,199.627 175.878,198.627 176.5,197.5 Z M 86.5,250.5 C 96.1902,251.337 99.6902,256.337 97,265.5C 94.5647,270.224 90.7314,271.724 85.5,270C 80.7886,265.86 79.2886,260.694 81,254.5C 83.0153,253.303 84.8487,251.97 86.5,250.5 Z M 170.5,251.5 C 176.873,251.368 179.373,254.368 178,260.5C 174.835,265.623 171.501,265.623 168,260.5C 166.927,256.9 167.76,253.9 170.5,251.5 Z"/></g>
<g><path style="opacity:0.873" fill="#c5cace" d="M 190.5,212.5 C 190.047,213.458 189.381,214.292 188.5,215C 186.238,215.642 184.071,216.475 182,217.5C 181.333,225.5 181.333,233.5 182,241.5C 189.144,247.072 191.644,254.072 189.5,262.5C 189.887,257.92 189.053,253.586 187,249.5C 185.927,250.28 184.76,250.113 183.5,249C 183.201,247.68 183.034,246.18 183,244.5C 182.282,243.549 181.449,243.383 180.5,244C 181.451,244.718 181.617,245.551 181,246.5C 179.956,245.377 179.29,244.044 179,242.5C 178.5,233.173 178.334,223.839 178.5,214.5C 182.773,214.919 186.773,214.252 190.5,212.5 Z"/></g>
<g><path style="opacity:0.688" fill="#020702" d="M 1545.5,250.5 C 1547.17,250.5 1548.83,250.5 1550.5,250.5C 1550.83,261.187 1550.5,271.854 1549.5,282.5C 1530.68,289.898 1511.35,291.398 1491.5,287C 1478.8,283.453 1468.8,276.286 1461.5,265.5C 1470.09,272.576 1479.76,277.743 1490.5,281C 1508.99,283.716 1526.99,281.882 1544.5,275.5C 1544.23,267.112 1544.56,258.779 1545.5,250.5 Z"/></g>
<g><path style="opacity:0.706" fill="#020803" d="M 2141.5,265.5 C 2146.4,268.968 2151.4,272.468 2156.5,276C 2181.65,284.954 2206.65,284.121 2231.5,273.5C 2232.2,266.445 2232.87,259.445 2233.5,252.5C 2235.04,251.699 2236.71,251.366 2238.5,251.5C 2238.83,261.19 2238.5,270.856 2237.5,280.5C 2224.13,286.868 2209.96,289.868 2195,289.5C 2178.95,290.472 2164.45,286.305 2151.5,277C 2147.58,273.59 2144.25,269.757 2141.5,265.5 Z"/></g>
<g><path style="opacity:0.688" fill="#050505" d="M 1065.5,261.5 C 1072.06,269.309 1080.06,275.475 1089.5,280C 1113.58,287.129 1137.08,285.629 1160,275.5C 1160.5,268.174 1160.67,260.841 1160.5,253.5C 1162.04,252.699 1163.71,252.366 1165.5,252.5C 1165.67,262.172 1165.5,271.839 1165,281.5C 1155.15,286.587 1144.65,289.421 1133.5,290C 1113.53,292.735 1095.19,288.735 1078.5,278C 1072.83,273.468 1068.5,267.968 1065.5,261.5 Z"/></g>
<g><path style="opacity:0.735" fill="#000501" d="M 1302.5,253.5 C 1304.45,253.227 1305.95,253.893 1307,255.5C 1307.81,265.547 1307.64,275.547 1306.5,285.5C 1272.5,286.833 1238.5,286.833 1204.5,285.5C 1203.69,283.929 1203.36,282.262 1203.5,280.5C 1204.17,280.5 1204.5,280.167 1204.5,279.5C 1236.5,279.5 1268.5,279.5 1300.5,279.5C 1300.5,271.167 1300.5,262.833 1300.5,254.5C 1300.84,253.662 1301.51,253.328 1302.5,253.5 Z"/></g>
<g><path style="opacity:0.698" fill="#050505" d="M 987.5,273.5 C 991.611,277.064 996.278,279.898 1001.5,282C 1015.33,285.565 1029,285.065 1042.5,280.5C 1043.2,272.777 1043.86,265.11 1044.5,257.5C 1045.71,256.766 1047.04,256.433 1048.5,256.5C 1048.83,266.522 1048.5,276.522 1047.5,286.5C 1030.13,292.507 1013.13,291.673 996.5,284C 992.673,281.16 989.673,277.66 987.5,273.5 Z"/></g>
<g><path style="opacity:1" fill="#14953b" d="M 1606.5,200.5 C 1605.54,226.808 1605.2,253.141 1605.5,279.5C 1594.5,279.5 1583.5,279.5 1572.5,279.5C 1582.99,278.506 1593.65,278.172 1604.5,278.5C 1604.33,253.498 1604.5,228.498 1605,203.5C 1605.23,202.263 1605.73,201.263 1606.5,200.5 Z"/></g>
<g><path style="opacity:0.746" fill="#030b04" d="M 1775.5,278.5 C 1759.85,290.48 1742.85,292.646 1724.5,285C 1719.38,282.285 1715.38,278.452 1712.5,273.5C 1716.5,276.167 1720.83,278.334 1725.5,280C 1746.62,286.024 1763.45,280.191 1776,262.5C 1776.68,267.871 1776.51,273.204 1775.5,278.5 Z"/></g>
<g><path style="opacity:0.74" fill="#030c04" d="M 2064.5,278.5 C 2050.08,289.405 2034.08,292.238 2016.5,287C 2006.91,283.567 1999.25,277.734 1993.5,269.5C 1994.55,269.351 1995.55,269.517 1996.5,270C 2000.73,274.571 2005.73,277.904 2011.5,280C 2033.77,286.298 2051.94,280.465 2066,262.5C 2066.92,268.105 2066.42,273.439 2064.5,278.5 Z"/></g>
<g><path style="opacity:1" fill="#19b849" d="M 1300.5,254.5 C 1300.5,262.833 1300.5,271.167 1300.5,279.5C 1268.5,279.5 1236.5,279.5 1204.5,279.5C 1236,278.502 1267.66,278.168 1299.5,278.5C 1299.17,270.316 1299.51,262.316 1300.5,254.5 Z"/></g>
<g><path style="opacity:1" fill="#18b146" d="M 1438.5,277.5 C 1439.04,277.56 1439.38,277.893 1439.5,278.5C 1425.85,279.499 1412.18,279.833 1398.5,279.5C 1411.83,278.833 1425.17,278.167 1438.5,277.5 Z"/></g>
<g><path style="opacity:1" fill="#15993c" d="M 1878.5,204.5 C 1878.5,229.5 1878.5,254.5 1878.5,279.5C 1867.5,279.5 1856.5,279.5 1845.5,279.5C 1855.99,278.506 1866.65,278.172 1877.5,278.5C 1877.17,253.661 1877.5,228.994 1878.5,204.5 Z"/></g>
<g><path style="opacity:0.998" fill="#cdd3d2" d="M 229.5,286.5 C 234.435,287.977 239.602,289.31 245,290.5C 246.174,295.75 246.841,301.084 247,306.5C 247.564,308.887 248.73,310.887 250.5,312.5C 247.302,311.213 243.969,310.547 240.5,310.5C 240.5,311.833 240.5,313.167 240.5,314.5C 229.755,312.558 218.755,311.891 207.5,312.5C 209.253,310.777 211.253,309.277 213.5,308C 219.5,307.667 225.5,307.333 231.5,307C 232.5,306.5 233.5,306 234.5,305.5C 236.775,302.113 238.608,298.447 240,294.5C 241.333,293.167 242.667,293.167 244,294.5C 244.865,292.112 244.032,290.612 241.5,290C 233.167,289.667 224.833,289.333 216.5,289C 214.942,288.79 213.609,288.29 212.5,287.5C 214.5,287.5 216.5,287.5 218.5,287.5C 222.064,286.577 225.731,286.244 229.5,286.5 Z"/></g>
<g><path style="opacity:0.6" fill="#aab2b5" d="M 302.5,309.5 C 314.833,309.5 327.167,309.5 339.5,309.5C 338.391,310.29 337.058,310.79 335.5,311C 325.833,311.667 316.167,311.667 306.5,311C 304.942,310.79 303.609,310.29 302.5,309.5 Z"/></g>
<g><path style="opacity:0.996" fill="#f3f4f5" d="M 212.5,287.5 C 213.609,288.29 214.942,288.79 216.5,289C 224.833,289.333 233.167,289.667 241.5,290C 244.032,290.612 244.865,292.112 244,294.5C 242.667,293.167 241.333,293.167 240,294.5C 238.608,298.447 236.775,302.113 234.5,305.5C 233.5,306 232.5,306.5 231.5,307C 225.5,307.333 219.5,307.667 213.5,308C 211.253,309.277 209.253,310.777 207.5,312.5C 202.726,317.431 198.559,322.764 195,328.5C 190.583,351.022 199.583,364.355 222,368.5C 244.396,365.452 254.396,352.786 252,330.5C 248.723,324.73 244.89,319.397 240.5,314.5C 240.5,313.167 240.5,311.833 240.5,310.5C 243.969,310.547 247.302,311.213 250.5,312.5C 257.175,316.688 261.341,322.688 263,330.5C 266.93,350.083 260.43,364.916 243.5,375C 224.404,383.111 207.237,380.277 192,366.5C 183.098,356.101 180.098,344.101 183,330.5C 184.049,326.735 185.382,323.068 187,319.5C 190.355,315.148 194.021,311.148 198,307.5C 195.374,295.008 200.207,288.341 212.5,287.5 Z"/></g>
<g><path style="opacity:1" fill="#f8fafa" d="M 441.5,305.5 C 444.698,310.21 448.531,314.543 453,318.5C 463.875,340.126 459.708,358.293 440.5,373C 432.427,377.954 423.76,379.787 414.5,378.5C 412.374,377.874 410.707,376.541 409.5,374.5C 412.305,372.393 415.305,370.559 418.5,369C 417.5,368.667 416.5,368.333 415.5,368C 420.039,367.747 424.539,367.247 429,366.5C 430.649,367.898 431.982,367.564 433,365.5C 436.851,364.439 440.351,362.106 443.5,358.5C 444.795,355.988 445.461,353.321 445.5,350.5C 447.533,344.117 447.866,337.784 446.5,331.5C 445.908,328.309 444.741,325.309 443,322.5C 439.956,319.294 437.123,315.961 434.5,312.5C 435.735,309.699 437.235,307.032 439,304.5C 439.249,305.624 439.749,306.624 440.5,307.5C 441.298,307.043 441.631,306.376 441.5,305.5 Z"/></g>
<g><path style="opacity:1" fill="#283238" d="M 207.5,312.5 C 218.755,311.891 229.755,312.558 240.5,314.5C 244.89,319.397 248.723,324.73 252,330.5C 254.396,352.786 244.396,365.452 222,368.5C 199.583,364.355 190.583,351.022 195,328.5C 198.559,322.764 202.726,317.431 207.5,312.5 Z"/></g>
<g><path style="opacity:1" fill="#0c2d14" d="M 2046.5,334.5 C 2046.08,335.222 2045.42,335.722 2044.5,336C 2035.66,336.824 2026.99,336.657 2018.5,335.5C 2027.85,335.566 2037.18,335.232 2046.5,334.5 Z"/></g>
<g><path style="opacity:1" fill="#c5cf5b" d="M 213.5,324.5 C 213.5,325.833 213.5,327.167 213.5,328.5C 210.223,331.101 208.223,334.435 207.5,338.5C 205.883,339.589 205.05,341.256 205,343.5C 202.019,335.27 203.853,328.27 210.5,322.5C 211.518,323.193 212.518,323.859 213.5,324.5 Z"/></g>
<g><path style="opacity:1" fill="#e9f3f5" d="M 427.5,335.5 C 429.144,335.286 430.644,335.62 432,336.5C 432.777,339.429 432.61,342.263 431.5,345C 423.5,345.667 415.5,345.667 407.5,345C 402.527,338.73 403.86,335.23 411.5,334.5C 413.436,330.285 414.103,325.619 413.5,320.5C 415.5,320.5 417.5,320.5 419.5,320.5C 419.805,325.762 419.471,330.928 418.5,336C 421.475,336.044 424.475,335.877 427.5,335.5 Z"/></g>
<g><path style="opacity:1" fill="#555748" d="M 229.5,320.5 C 230.919,319.549 232.585,319.216 234.5,319.5C 234.5,323.167 234.5,326.833 234.5,330.5C 235.552,330.351 236.552,330.517 237.5,331C 235.65,334.466 236.65,336.299 240.5,336.5C 240.48,338.143 241.147,339.476 242.5,340.5C 242.463,344.367 241.963,348.034 241,351.5C 237.901,354.431 234.401,356.765 230.5,358.5C 231.228,356.265 232.561,354.432 234.5,353C 232.343,351.088 230.009,349.421 227.5,348C 230.678,347.34 233.678,346.507 236.5,345.5C 237.649,345.209 238.316,344.376 238.5,343C 238.077,338.965 236.077,336.132 232.5,334.5C 233.443,329.9 233.777,325.233 233.5,320.5C 232.167,320.5 230.833,320.5 229.5,320.5 Z"/></g>
<g><path style="opacity:1" fill="#e2dfae" d="M 229.5,320.5 C 230.833,320.5 232.167,320.5 233.5,320.5C 233.777,325.233 233.443,329.9 232.5,334.5C 236.077,336.132 238.077,338.965 238.5,343C 238.316,344.376 237.649,345.209 236.5,345.5C 227.814,344.563 219.148,344.563 210.5,345.5C 210.065,342.162 210.732,339.162 212.5,336.5C 213.708,335.766 215.041,335.433 216.5,335.5C 216.5,330.167 216.5,324.833 216.5,319.5C 218.167,319.5 219.833,319.5 221.5,319.5C 221.5,325.5 221.5,331.5 221.5,337.5C 223.833,337.5 226.167,337.5 228.5,337.5C 228.178,331.642 228.511,325.975 229.5,320.5 Z"/></g>
<g><path style="opacity:1" fill="#a4a959" d="M 213.5,324.5 C 212.518,323.859 211.518,323.193 210.5,322.5C 203.853,328.27 202.019,335.27 205,343.5C 205.05,341.256 205.883,339.589 207.5,338.5C 207.337,340.857 207.503,343.19 208,345.5C 210.697,348.208 213.863,350.041 217.5,351C 219.155,352.444 219.822,354.278 219.5,356.5C 222.167,356.5 224.833,356.5 227.5,356.5C 227.5,357.5 227.5,358.5 227.5,359.5C 222.703,359.879 218.036,359.379 213.5,358C 203.062,350.024 199.896,339.857 204,327.5C 205.621,323.509 208.454,321.676 212.5,322C 213.252,322.671 213.586,323.504 213.5,324.5 Z"/></g>
<g><path style="opacity:1" fill="#7c7843" d="M 213.5,328.5 C 212.844,330.484 212.178,332.484 211.5,334.5C 211.543,335.416 211.876,336.083 212.5,336.5C 210.732,339.162 210.065,342.162 210.5,345.5C 219.148,344.563 227.814,344.563 236.5,345.5C 233.678,346.507 230.678,347.34 227.5,348C 230.009,349.421 232.343,351.088 234.5,353C 232.561,354.432 231.228,356.265 230.5,358.5C 229.609,359.11 228.609,359.443 227.5,359.5C 227.5,358.5 227.5,357.5 227.5,356.5C 224.833,356.5 222.167,356.5 219.5,356.5C 219.822,354.278 219.155,352.444 217.5,351C 213.863,350.041 210.697,348.208 208,345.5C 207.503,343.19 207.337,340.857 207.5,338.5C 208.223,334.435 210.223,331.101 213.5,328.5 Z"/></g>
<g><path style="opacity:1" fill="#345d75" d="M 425.5,320.5 C 428.212,320.737 430.712,320.737 433,320.5C 433.813,322.436 434.313,324.436 434.5,326.5C 435.552,326.351 436.552,326.517 437.5,327C 438.641,329.308 440.308,331.141 442.5,332.5C 444.327,340.199 445.66,339.866 446.5,331.5C 447.866,337.784 447.533,344.117 445.5,350.5C 442.865,356.468 438.532,360.802 432.5,363.5C 432.631,362.761 432.464,362.094 432,361.5C 424.191,364.475 416.357,363.808 408.5,359.5C 407.614,358.675 407.281,357.675 407.5,356.5C 403.808,356.305 401.974,354.305 402,350.5C 395.876,346.854 393.876,341.52 396,334.5C 396.526,331.117 397.859,328.117 400,325.5C 402.307,321.674 405.474,320.674 409.5,322.5C 410.706,326.072 411.373,329.738 411.5,333.5C 411.5,333.833 411.5,334.167 411.5,334.5C 403.86,335.23 402.527,338.73 407.5,345C 415.5,345.667 423.5,345.667 431.5,345C 432.61,342.263 432.777,339.429 432,336.5C 430.644,335.62 429.144,335.286 427.5,335.5C 425.467,334.102 424.467,332.102 424.5,329.5C 425.162,326.532 425.495,323.532 425.5,320.5 Z"/></g>
<g><path style="opacity:0.998" fill="#e9edef" d="M 438.5,290.5 C 441.133,295.072 442.133,300.072 441.5,305.5C 441.631,306.376 441.298,307.043 440.5,307.5C 439.749,306.624 439.249,305.624 439,304.5C 437.235,307.032 435.735,309.699 434.5,312.5C 423.813,312.168 413.146,312.501 402.5,313.5C 388.438,326.911 386.938,341.577 398,357.5C 408.163,367.015 419.663,369.015 432.5,363.5C 438.532,360.802 442.865,356.468 445.5,350.5C 445.461,353.321 444.795,355.988 443.5,358.5C 440.351,362.106 436.851,364.439 433,365.5C 431.982,367.564 430.649,367.898 429,366.5C 424.539,367.247 420.039,367.747 415.5,368C 416.5,368.333 417.5,368.667 418.5,369C 415.305,370.559 412.305,372.393 409.5,374.5C 410.707,376.541 412.374,377.874 414.5,378.5C 392.354,374.352 380.354,361.019 378.5,338.5C 378.865,325.77 384.032,315.436 394,307.5C 394.174,302.649 394.674,297.982 395.5,293.5C 395.212,299.229 395.546,304.896 396.5,310.5C 394.098,311.575 391.764,312.742 389.5,314C 390.667,315.833 392.167,317.333 394,318.5C 395.286,315.38 397.452,313.046 400.5,311.5C 405.103,310.342 409.77,309.509 414.5,309C 415.167,308.333 415.833,307.667 416.5,307C 420.22,305.987 423.886,304.82 427.5,303.5C 430.026,300.474 432.36,297.307 434.5,294C 435.448,293.517 436.448,293.351 437.5,293.5C 437.263,292.209 437.596,291.209 438.5,290.5 Z"/></g>
<g><path style="opacity:1" fill="#2e4b5e" d="M 434.5,312.5 C 437.123,315.961 439.956,319.294 443,322.5C 444.741,325.309 445.908,328.309 446.5,331.5C 445.66,339.866 444.327,340.199 442.5,332.5C 440.308,331.141 438.641,329.308 437.5,327C 436.552,326.517 435.552,326.351 434.5,326.5C 434.313,324.436 433.813,322.436 433,320.5C 430.712,320.737 428.212,320.737 425.5,320.5C 421.19,319.92 416.857,319.586 412.5,319.5C 412.819,324.363 412.486,329.03 411.5,333.5C 411.373,329.738 410.706,326.072 409.5,322.5C 405.474,320.674 402.307,321.674 400,325.5C 397.859,328.117 396.526,331.117 396,334.5C 393.876,341.52 395.876,346.854 402,350.5C 401.974,354.305 403.808,356.305 407.5,356.5C 407.281,357.675 407.614,358.675 408.5,359.5C 416.357,363.808 424.191,364.475 432,361.5C 432.464,362.094 432.631,362.761 432.5,363.5C 419.663,369.015 408.163,367.015 398,357.5C 386.938,341.577 388.438,326.911 402.5,313.5C 413.146,312.501 423.813,312.168 434.5,312.5 Z"/></g>
<g><path style="opacity:1" fill="#819a9f" d="M 425.5,320.5 C 425.495,323.532 425.162,326.532 424.5,329.5C 424.467,332.102 425.467,334.102 427.5,335.5C 424.475,335.877 421.475,336.044 418.5,336C 419.471,330.928 419.805,325.762 419.5,320.5C 417.5,320.5 415.5,320.5 413.5,320.5C 414.103,325.619 413.436,330.285 411.5,334.5C 411.5,334.167 411.5,333.833 411.5,333.5C 412.486,329.03 412.819,324.363 412.5,319.5C 416.857,319.586 421.19,319.92 425.5,320.5 Z"/></g>
</svg>
